<svg xmlns="http://www.w3.org/2000/svg" version="1.1" viewBox="26 21.7 1821.82 228.96"><path d="M 125.784 40.738 C 128.689 40.941, 133.189 40.939, 135.784 40.734 C 138.378 40.528, 136 40.363, 130.500 40.365 C 125 40.368, 122.878 40.536, 125.784 40.738 M 32.434 109.500 C 32.433 123.250, 32.574 129.014, 32.747 122.308 C 32.919 115.603, 32.920 104.353, 32.748 97.308 C 32.576 90.264, 32.434 95.750, 32.434 109.500 M 727.436 141.500 C 727.436 155.800, 727.577 161.511, 727.748 154.191 C 727.919 146.871, 727.918 135.171, 727.747 128.191 C 727.575 121.211, 727.435 127.200, 727.436 141.500 M 742.385 135 C 742.385 141.875, 742.545 144.688, 742.740 141.250 C 742.936 137.813, 742.936 132.188, 742.740 128.750 C 742.545 125.313, 742.385 128.125, 742.385 135 M 1321.497 135.169 C 1321.495 141.205, 1321.788 145.099, 1322.147 143.822 C 1323.060 140.579, 1323.125 126.745, 1322.235 125.347 C 1321.831 124.713, 1321.499 129.132, 1321.497 135.169 M 628.415 147 C 628.415 157.175, 628.564 161.338, 628.745 156.250 C 628.927 151.162, 628.927 142.837, 628.745 137.750 C 628.564 132.662, 628.415 136.825, 628.415 147 M 649.446 170.500 C 649.447 188.100, 649.583 195.159, 649.749 186.187 C 649.914 177.215, 649.914 162.815, 649.748 154.187 C 649.581 145.559, 649.446 152.900, 649.446 170.500 M 354.014 149.026 C 355.716 152.207, 364.013 157.841, 369.432 159.495 C 377.107 161.838, 381.704 161.409, 389.633 157.609 C 395.690 154.706, 401 150.028, 401 147.596 C 401 147.268, 390.184 147, 376.965 147 C 353.137 147, 352.939 147.017, 354.014 149.026 M 749.431 177.500 C 749.432 190.700, 749.574 195.962, 749.747 189.193 C 749.921 182.424, 749.920 171.624, 749.746 165.193 C 749.572 158.762, 749.431 164.300, 749.431 177.500 M 635.382 175.500 C 635.384 182.100, 635.546 184.670, 635.741 181.211 C 635.937 177.752, 635.936 172.352, 635.738 169.211 C 635.540 166.070, 635.380 168.900, 635.382 175.500 M 155.385 188 C 155.385 194.875, 155.545 197.688, 155.740 194.250 C 155.936 190.813, 155.936 185.188, 155.740 181.750 C 155.545 178.313, 155.385 181.125, 155.385 188 M 133.784 183.738 C 136.689 183.941, 141.189 183.939, 143.784 183.734 C 146.378 183.528, 144 183.363, 138.500 183.365 C 133 183.368, 130.878 183.536, 133.784 183.738 M 1819.415 201 C 1819.415 211.175, 1819.564 215.338, 1819.745 210.250 C 1819.927 205.162, 1819.927 196.837, 1819.745 191.750 C 1819.564 186.662, 1819.415 190.825, 1819.415 201 M 528.415 204 C 528.415 214.175, 528.564 218.338, 528.745 213.250 C 528.927 208.162, 528.927 199.837, 528.745 194.750 C 528.564 189.662, 528.415 193.825, 528.415 204 M 305.420 216.500 C 305.419 227.500, 305.565 232.136, 305.745 226.803 C 305.924 221.470, 305.925 212.470, 305.746 206.803 C 305.568 201.136, 305.421 205.500, 305.420 216.500 M 148.389 210.500 C 148.390 217.650, 148.550 220.444, 148.742 216.708 C 148.935 212.973, 148.934 207.123, 148.739 203.708 C 148.545 200.294, 148.387 203.350, 148.389 210.500 M 451.434 221.489 C 451.487 228.733, 451.791 230.498, 453 230.585 C 453.825 230.644, 453.955 230.507, 453.288 230.280 C 452.502 230.013, 451.952 226.816, 451.722 221.184 L 451.369 212.500 451.434 221.489 M 642.365 228.500 C 642.368 234, 642.536 236.122, 642.738 233.216 C 642.941 230.311, 642.939 225.811, 642.734 223.216 C 642.528 220.622, 642.363 223, 642.365 228.500 M 1475.784 227.738 C 1478.689 227.941, 1483.189 227.939, 1485.784 227.734 C 1488.378 227.528, 1486 227.363, 1480.500 227.365 C 1475 227.368, 1472.878 227.536, 1475.784 227.738 M 801.750 228.744 C 806.288 228.929, 813.712 228.929, 818.250 228.744 C 822.788 228.559, 819.075 228.407, 810 228.407 C 800.925 228.407, 797.212 228.559, 801.750 228.744 M 1437.250 228.746 C 1443.162 228.923, 1452.838 228.923, 1458.750 228.746 C 1464.662 228.569, 1459.825 228.425, 1448 228.425 C 1436.175 228.425, 1431.338 228.569, 1437.250 228.746 M 1714.250 228.748 C 1724.013 228.912, 1739.987 228.912, 1749.750 228.748 C 1759.513 228.585, 1751.525 228.451, 1732 228.451 C 1712.475 228.451, 1704.487 228.585, 1714.250 228.748 M 1393.302 229.746 C 1398.693 229.926, 1407.243 229.925, 1412.302 229.744 C 1417.361 229.563, 1412.950 229.416, 1402.500 229.417 C 1392.050 229.418, 1387.911 229.566, 1393.302 229.746 M 969.812 234.748 C 978.233 234.916, 991.733 234.915, 999.812 234.748 C 1007.890 234.580, 1001 234.443, 984.500 234.443 C 968 234.444, 961.390 234.581, 969.812 234.748 M 1826 237 L 1816.500 237.617 1825.691 237.809 C 1830.957 237.918, 1835.146 237.573, 1835.500 237 C 1835.840 236.450, 1835.979 236.086, 1835.809 236.191 C 1835.639 236.297, 1831.225 236.661, 1826 237 M 1064.250 243.739 C 1067.412 243.937, 1072.588 243.937, 1075.750 243.739 C 1078.912 243.541, 1076.325 243.378, 1070 243.378 C 1063.675 243.378, 1061.088 243.541, 1064.250 243.739" stroke="none" fill="#d16a26" fill-rule="evenodd"/><path d="M 1501.750 43.706 C 1503.721 44.085, 1504.012 44.781, 1504.100 49.320 C 1504.155 52.169, 1504.572 55.625, 1505.027 57 C 1505.542 58.556, 1505.662 56.858, 1505.345 52.500 C 1504.689 43.469, 1504.500 42.974, 1501.781 43.136 L 1499.500 43.272 1501.750 43.706 M 1474.750 44.737 C 1477.638 44.939, 1482.362 44.939, 1485.250 44.737 C 1488.138 44.535, 1485.775 44.370, 1480 44.370 C 1474.225 44.370, 1471.862 44.535, 1474.750 44.737 M 645.217 117.689 L 648.934 118.117 649.267 128.308 L 649.601 138.500 649.551 128 L 649.500 117.500 645.500 117.381 L 641.500 117.262 645.217 117.689 M 351.511 126.232 C 349.363 131.561, 349.292 138.370, 351.334 143.256 L 352.898 147 377.248 147 L 401.598 147 402.739 143.750 C 405.026 137.233, 405.131 133.621, 403.200 128 L 401.310 122.500 377.271 122.232 L 353.231 121.965 351.511 126.232 M 1079.455 197 C 1079.455 218.725, 1079.587 227.612, 1079.749 216.750 C 1079.910 205.887, 1079.910 188.112, 1079.749 177.250 C 1079.587 166.387, 1079.455 175.275, 1079.455 197 M 1841.239 199.721 L 1841 241.942 1827.750 242.253 L 1814.500 242.563 1827.781 242.782 C 1837.653 242.944, 1841.186 242.679, 1841.543 241.749 C 1841.807 241.062, 1841.900 221.824, 1841.750 198.999 L 1841.477 157.500 1841.239 199.721 M 727.444 197 C 727.444 213.775, 727.581 220.637, 727.748 212.250 C 727.915 203.863, 727.915 190.137, 727.748 181.750 C 727.581 173.363, 727.444 180.225, 727.444 197 M 749.395 214.500 C 749.396 222.200, 749.553 225.218, 749.743 221.206 C 749.934 217.195, 749.932 210.895, 749.741 207.206 C 749.549 203.518, 749.393 206.800, 749.395 214.500 M 118.116 225.238 L 118 227.977 79.250 228.250 L 40.500 228.524 79.281 228.762 C 120.639 229.016, 119.941 229.095, 118.701 224.308 C 118.393 223.120, 118.192 223.439, 118.116 225.238 M 912.296 226.744 C 916.583 226.932, 923.333 226.931, 927.296 226.742 C 931.258 226.552, 927.750 226.399, 919.500 226.400 C 911.250 226.401, 908.008 226.556, 912.296 226.744 M 575.250 228.748 C 583.362 228.916, 596.638 228.916, 604.750 228.748 C 612.862 228.580, 606.225 228.442, 590 228.442 C 573.775 228.442, 567.138 228.580, 575.250 228.748 M 762.250 228.746 C 768.163 228.923, 777.837 228.923, 783.750 228.746 C 789.663 228.569, 784.825 228.425, 773 228.425 C 761.175 228.425, 756.337 228.569, 762.250 228.746 M 1774 231.833 C 1774 232.700, 1763.137 233.061, 1731.750 233.239 L 1689.500 233.477 1731.439 233.750 C 1770.889 234.006, 1777 233.667, 1774.683 231.350 C 1774.307 230.974, 1774 231.192, 1774 231.833 M 1461.784 233.738 C 1464.689 233.941, 1469.189 233.939, 1471.784 233.734 C 1474.378 233.528, 1472 233.363, 1466.500 233.365 C 1461 233.368, 1458.878 233.536, 1461.784 233.738" stroke="none" fill="#9f48cb" fill-rule="evenodd"/><path d="M 368.806 110.144 C 362.837 112.225, 353.904 119.191, 355.331 120.650 C 356.703 122.052, 400 122.330, 400 120.936 C 400 118.474, 392.317 112.239, 386.712 110.153 C 379.708 107.547, 376.256 107.546, 368.806 110.144 M 657.428 182 C 657.428 194.375, 657.571 199.438, 657.747 193.250 C 657.922 187.063, 657.922 176.938, 657.747 170.750 C 657.571 164.563, 657.428 169.625, 657.428 182" stroke="none" fill="#3fb632" fill-rule="evenodd"/><path d="M 1364 57.463 C 1338.747 65.472, 1320.394 71.003, 1319.075 71.002 C 1318.291 71.001, 1305.142 67.987, 1289.853 64.305 C 1274.565 60.623, 1261.833 57.833, 1261.561 58.106 C 1261.288 58.379, 1259.740 63.979, 1258.121 70.551 C 1255.230 82.282, 1252.794 97.289, 1251.416 111.855 L 1250.721 119.211 1246.837 118.590 C 1237.902 117.161, 1233 115.762, 1233 114.640 C 1233 113.983, 1233.670 112.488, 1234.490 111.318 C 1239.535 104.115, 1252 83.626, 1252 82.536 C 1252 80.351, 1239.945 71.163, 1232.293 67.514 C 1219.733 61.525, 1214.565 60.556, 1195 60.528 C 1175.419 60.499, 1171.032 61.362, 1158.512 67.702 C 1131.837 81.212, 1115 109.875, 1115 141.774 C 1115 153.790, 1116.242 160.903, 1120.078 170.866 C 1129.341 194.922, 1147.807 212.311, 1172.500 220.231 C 1181.306 223.055, 1200.260 223.736, 1210.769 221.607 C 1229.826 217.745, 1246.396 206.421, 1257.533 189.648 L 1261.332 183.926 1263.746 188.688 C 1268.895 198.846, 1278.972 209.846, 1288.652 215.874 C 1303.291 224.991, 1325.783 227.153, 1343.200 221.117 C 1354.454 217.217, 1366.090 207.265, 1373.267 195.402 C 1375.045 192.462, 1376.838 190.044, 1377.250 190.028 C 1377.662 190.013, 1378.003 193.713, 1378.006 198.250 C 1378.009 202.787, 1378.306 210.279, 1378.666 214.897 L 1379.319 223.295 1411.910 222.642 C 1429.834 222.283, 1456.650 221.703, 1471.500 221.353 L 1498.500 220.717 1498.153 215.859 C 1497.963 213.186, 1498.015 211, 1498.270 211 C 1498.524 211, 1502.955 212.990, 1508.116 215.423 C 1520.993 221.492, 1527.425 223.058, 1542.125 223.703 C 1552.035 224.137, 1556.443 223.882, 1562.625 222.513 C 1572.503 220.326, 1583.461 215.190, 1590.527 209.435 C 1593.521 206.996, 1596.255 205, 1596.601 205 C 1596.948 205, 1600.217 206.942, 1603.866 209.316 C 1611.973 214.591, 1622.333 219.323, 1631 221.710 C 1640.283 224.267, 1665.042 224.239, 1673.500 221.662 C 1681.336 219.274, 1690.223 214.773, 1696.708 209.907 L 1701.916 205.999 1702.208 213.749 L 1702.500 221.500 1732.250 221.765 L 1762 222.030 1762 215.015 C 1762 211.029, 1762.430 208, 1762.995 208 C 1763.542 208, 1766.728 210.206, 1770.075 212.903 C 1782.719 223.092, 1796.342 228.352, 1814.447 230.037 C 1820.918 230.639, 1826.840 230.891, 1827.607 230.597 C 1828.755 230.157, 1829 224.781, 1829 200.031 L 1829 170 1821.934 170 C 1816.030 170, 1812.156 169.151, 1810.132 167.413 C 1809.929 167.239, 1811.793 164.712, 1814.274 161.798 C 1824.676 149.582, 1829.234 136.726, 1829.269 119.500 C 1829.305 102.121, 1824.445 89.489, 1813.500 78.516 C 1801.130 66.114, 1785.334 60.226, 1761.923 59.291 C 1739.119 58.381, 1720.534 61.239, 1707.810 67.614 L 1701.119 70.965 1692.810 66.986 C 1680.228 60.961, 1668.380 58.681, 1653 59.325 C 1645.672 59.632, 1638.224 60.541, 1635 61.521 C 1626.999 63.953, 1616.577 69.676, 1610.973 74.714 L 1606.088 79.106 1598.545 73.966 C 1589.353 67.702, 1577.343 62.703, 1566.027 60.430 C 1554.055 58.026, 1536.295 58.869, 1526.235 62.320 C 1516.934 65.510, 1505.606 72.576, 1499.743 78.844 L 1495.148 83.756 1494.548 76.128 C 1494.218 71.933, 1493.695 65.648, 1493.385 62.161 L 1492.822 55.823 1479.161 56.425 C 1471.647 56.756, 1453.575 57.455, 1439 57.977 C 1424.425 58.500, 1404.730 59.214, 1395.233 59.564 L 1377.965 60.199 1376.885 57.100 C 1376.291 55.395, 1375.511 54.030, 1375.152 54.066 C 1374.793 54.102, 1369.775 55.631, 1364 57.463 M 470 89.683 C 470 107.827, 470.299 142.351, 470.664 166.402 L 471.328 210.133 486.414 209.521 C 494.711 209.185, 502.962 208.684, 504.750 208.409 L 508 207.909 508 166.732 C 508 126.539, 508.044 125.603, 509.861 127.528 C 510.885 128.612, 524.666 146.970, 540.486 168.322 C 558.842 193.097, 570.133 207.480, 571.690 208.072 C 573.032 208.583, 581.678 209, 590.903 209 L 607.675 209 608.336 169.250 C 608.700 147.387, 608.998 113.342, 608.999 93.593 L 609 57.685 590.862 58.314 C 580.886 58.660, 572.607 59.068, 572.464 59.222 C 572.321 59.375, 571.874 77.612, 571.470 99.750 C 571.067 121.888, 570.458 139.988, 570.118 139.973 C 569.778 139.959, 556.450 122.757, 540.500 101.747 C 524.550 80.736, 510.297 62.298, 508.827 60.773 C 506.419 58.275, 505.476 58, 499.327 57.995 C 495.572 57.993, 487.438 57.699, 481.250 57.343 L 470 56.694 470 89.683 M 680 58.557 C 656.075 59.237, 634.071 59.841, 631.103 59.897 L 625.706 60 626.372 71.750 C 626.738 78.213, 627.316 86.763, 627.656 90.750 L 628.276 98 648.638 98 L 669 98 669 128.338 C 669 145.024, 669.297 170.222, 669.660 184.334 L 670.320 209.993 684.910 209.450 C 692.935 209.151, 701.413 208.675, 703.750 208.392 L 708 207.877 708 152.546 C 708 103.013, 708.166 97.150, 709.582 96.607 C 710.452 96.273, 719.564 95.993, 729.832 95.985 C 740.099 95.976, 749.138 95.566, 749.918 95.072 C 751.133 94.303, 751.153 91.630, 750.056 76.337 C 749.353 66.527, 748.576 58.163, 748.330 57.750 C 747.780 56.828, 735.766 56.970, 680 58.557 M 860.028 58.702 C 840.519 59.476, 824.412 60.255, 824.235 60.432 C 823.643 61.024, 828.648 208.149, 829.273 208.511 C 829.802 208.818, 910.482 206.966, 920.750 206.411 L 932 205.803 932 186.760 L 932 167.717 920.250 168.337 C 886.506 170.120, 868.809 170.308, 867.914 168.895 C 867.428 168.128, 867.024 163.857, 867.015 159.404 L 867 151.309 879.750 150.658 C 886.763 150.301, 898.350 149.999, 905.500 149.989 C 912.650 149.978, 919.118 149.578, 919.872 149.100 C 921.007 148.381, 921.094 145.046, 920.372 129.865 L 919.500 111.500 891.837 111.881 L 864.174 112.262 863.802 104.881 C 863.598 100.821, 863.671 97.195, 863.965 96.822 C 864.259 96.450, 879.279 95.820, 897.341 95.424 L 930.182 94.702 929.638 90.601 C 929.338 88.346, 928.813 80.650, 928.470 73.500 C 928.128 66.350, 927.627 59.712, 927.356 58.750 C 926.913 57.170, 925.338 57.014, 911.183 57.147 C 902.557 57.228, 879.538 57.927, 860.028 58.702 M 194.341 61.016 C 188.754 62.090, 182.004 63.777, 179.341 64.766 L 174.500 66.565 174.835 135.033 C 175.019 172.690, 175.387 204.287, 175.652 205.250 C 176.090 206.838, 177.887 207, 195.067 207 L 214 207 214 188.500 L 214 170 216.750 170.005 C 219.197 170.009, 219.988 170.965, 223.927 178.677 C 233.938 198.276, 256.513 213.629, 278.314 215.665 L 285 216.289 285 197.164 L 285 178.038 282.250 177.450 C 272.728 175.412, 267.369 172.026, 262.462 164.946 L 259.568 160.769 263.534 157.670 C 273.030 150.251, 279.436 141.526, 283.118 131 C 284.996 125.628, 285.390 122.418, 285.385 112.500 C 285.378 99.598, 283.799 93.452, 278.205 84.550 C 271.939 74.580, 258.056 65.322, 243.500 61.406 C 233.792 58.794, 207.016 58.582, 194.341 61.016 M 364.075 60.087 C 336.330 65.531, 313.223 85.876, 303.413 113.500 C 300.799 120.860, 300.265 142.350, 302.481 151 C 308.281 173.646, 326.983 194.921, 349.110 204.046 C 369.044 212.265, 389.153 211.823, 408.184 202.747 C 428.199 193.201, 441.959 178.457, 449.091 158.912 C 458.558 132.974, 452.816 105.377, 433.568 84.294 C 418.760 68.073, 397.627 58.803, 376.162 59.110 C 371.948 59.170, 366.509 59.610, 364.075 60.087 M 971.500 60.483 C 961.754 62.190, 955.399 63.863, 951.750 65.681 L 949 67.051 949.002 109.276 C 949.003 132.499, 949.300 163.988, 949.663 179.250 L 950.322 207 969.818 207 L 989.314 207 988.699 188.500 L 988.083 170 991.019 170 C 993.689 170, 994.295 170.700, 997.727 177.750 C 1003.051 188.687, 1016.207 201.879, 1027.713 207.822 C 1036.663 212.443, 1048.817 216, 1055.660 216 L 1060 216 1060 197.083 L 1060 178.166 1054.950 177.083 C 1047.074 175.394, 1042.829 172.639, 1037.725 165.906 C 1034.174 161.222, 1034.292 159.992, 1038.567 157.080 C 1047.062 151.294, 1054.897 139.825, 1058.388 128.068 C 1060.525 120.870, 1060.525 105.133, 1058.388 97.932 C 1052.937 79.559, 1039.017 67.006, 1018 61.512 C 1009.065 59.176, 982.332 58.584, 971.500 60.483 M 95 61.050 C 78.775 61.418, 64.263 61.782, 62.750 61.859 L 60 62 60 135.500 L 60 209 79.142 209 L 98.284 209 97.562 183.159 L 96.840 157.318 110.578 156.659 C 118.134 156.296, 128.970 156, 134.658 156 L 145 156 144.912 151.750 C 144.863 149.412, 144.301 140.975, 143.662 133 L 142.500 118.500 119.320 118.232 L 96.139 117.963 95.487 112.732 C 95.128 109.854, 94.984 105.925, 95.167 104 L 95.500 100.500 110 99.876 C 117.975 99.532, 132.037 99.195, 141.250 99.126 L 158 99 158 79.500 L 158 60 141.250 60.190 C 132.037 60.295, 111.225 60.682, 95 61.050 M 770.574 62.250 C 770.319 63.487, 769.822 97.012, 769.470 136.750 L 768.829 209 787.314 209 L 805.799 209 806.374 196.750 C 806.690 190.012, 807.143 156.488, 807.381 122.250 L 807.812 60 789.425 60 C 771.161 60, 771.035 60.015, 770.574 62.250 M 1422.712 68.409 C 1391.296 69.320, 1384.770 69.754, 1384.011 70.982 C 1383.509 71.795, 1383.308 75.844, 1383.565 79.980 C 1383.822 84.116, 1384.229 92.900, 1384.470 99.500 C 1384.710 106.100, 1385.356 122.300, 1385.904 135.500 C 1386.452 148.700, 1387.219 170.902, 1387.610 184.838 C 1388.187 205.422, 1388.603 210.460, 1389.830 211.687 C 1391.110 212.968, 1393.944 213.103, 1408.420 212.577 C 1417.814 212.235, 1439.450 211.563, 1456.500 211.083 C 1473.550 210.603, 1487.612 210.163, 1487.750 210.105 C 1487.888 210.047, 1488 201.684, 1488 191.519 L 1488 173.038 1485.569 172.428 C 1484.232 172.092, 1479.170 172.109, 1474.319 172.465 C 1466.623 173.030, 1427.689 174.782, 1427.389 174.576 C 1427.328 174.534, 1426.997 170.675, 1426.654 166 L 1426.031 157.500 1447.302 157.396 C 1459.001 157.338, 1470.739 156.966, 1473.387 156.569 L 1478.201 155.847 1477.606 146.174 C 1477.279 140.853, 1476.722 132.519, 1476.369 127.653 L 1475.727 118.806 1449.937 119.153 L 1424.148 119.500 1423.793 113 C 1423.597 109.425, 1423.451 106.427, 1423.469 106.338 C 1423.486 106.250, 1437.450 105.800, 1454.500 105.338 L 1485.500 104.500 1485.442 99.500 C 1485.369 93.265, 1484.069 74.605, 1483.405 70.250 L 1482.909 67 1471.705 67.157 C 1465.542 67.243, 1443.495 67.807, 1422.712 68.409 M 1362 69.567 C 1359.525 70.380, 1351.904 72.603, 1345.065 74.507 C 1338.226 76.412, 1332.312 78.314, 1331.924 78.735 C 1331.535 79.156, 1332.722 86.925, 1334.562 96 C 1339.415 119.944, 1340.536 132.172, 1339.119 145.710 C 1338.482 151.793, 1337.299 158.998, 1336.490 161.723 C 1332.280 175.897, 1321.296 181.142, 1313.063 172.909 C 1307.316 167.162, 1303.354 148.077, 1304.294 130.666 C 1304.596 125.075, 1305.069 119.375, 1305.346 118 C 1305.623 116.625, 1306.359 110.001, 1306.980 103.281 C 1307.602 96.560, 1308.472 88.779, 1308.913 85.989 C 1309.891 79.801, 1310.341 80.109, 1295 76.478 C 1288.675 74.981, 1280.488 72.981, 1276.806 72.034 C 1273.125 71.087, 1269.696 70.580, 1269.188 70.906 C 1267.892 71.738, 1264.313 87.664, 1262.875 99 C 1261.252 111.789, 1261.263 144.462, 1262.893 154.500 C 1265.653 171.485, 1272.902 187.595, 1282.320 197.675 C 1289.974 205.867, 1295.692 209.528, 1305.719 212.654 C 1312.969 214.914, 1315.225 215.172, 1324.237 214.767 C 1336.258 214.228, 1345.320 211.018, 1354.596 204.015 C 1364.886 196.246, 1374.795 179.478, 1378.539 163.500 C 1383.887 140.674, 1382.021 99.304, 1374.592 76 C 1372.392 69.099, 1371.974 68.484, 1369.351 68.294 C 1367.783 68.180, 1364.475 68.753, 1362 69.567 M 1535 70.534 C 1511.028 77.158, 1495 95.138, 1495 115.403 C 1495 124.854, 1498.952 135.425, 1505.037 142.252 C 1515.967 154.516, 1526.714 159.615, 1544.519 160.985 C 1556.738 161.925, 1560.773 163.245, 1561.609 166.578 C 1563.138 172.671, 1556.794 176.535, 1545.500 176.389 C 1535.572 176.261, 1528.398 173.323, 1520.914 166.323 L 1515.768 161.509 1511.225 166.505 C 1508.726 169.252, 1502.876 175.764, 1498.224 180.976 L 1489.767 190.452 1495.645 195.977 C 1502.379 202.307, 1511.775 207.492, 1524 211.626 C 1531.637 214.208, 1533.820 214.500, 1545.500 214.500 C 1557.399 214.500, 1559.165 214.253, 1566.351 211.584 C 1584.718 204.764, 1598.394 191.107, 1602.448 175.540 C 1608.358 152.842, 1597.671 133.916, 1574.735 126.465 C 1568.613 124.476, 1563.164 123.577, 1553.500 122.962 C 1535.796 121.834, 1530.708 119.528, 1532.945 113.645 C 1534.416 109.775, 1540.433 107.509, 1549 107.598 C 1557.978 107.690, 1563.903 109.787, 1573.829 116.386 C 1580.488 120.813, 1583.235 121.413, 1584.302 118.673 C 1584.553 118.028, 1588.863 111.793, 1593.879 104.818 C 1598.896 97.843, 1603 91.751, 1603 91.280 C 1603 89.960, 1594.713 83.338, 1588.279 79.518 C 1585.101 77.631, 1578.225 74.657, 1573 72.911 C 1565.030 70.247, 1561.648 69.678, 1552 69.375 C 1543.819 69.118, 1538.913 69.452, 1535 70.534 M 1645.500 69.615 C 1630.338 73.495, 1619.720 79.474, 1611.963 88.500 C 1605.449 96.079, 1602.824 102.675, 1602.239 112.936 C 1601.632 123.590, 1603.306 130.069, 1608.905 138.732 C 1617.400 151.874, 1632.030 159.532, 1651.443 160.996 C 1665.149 162.029, 1668 163.147, 1668 167.486 C 1668 176.373, 1651.845 179.738, 1638.503 173.630 C 1635.745 172.367, 1630.856 169.191, 1627.640 166.571 C 1624.424 163.951, 1621.472 162.189, 1621.081 162.654 C 1618.649 165.545, 1604.800 181.116, 1601.267 184.930 C 1598.939 187.444, 1597.026 190.005, 1597.017 190.623 C 1596.987 192.598, 1605.250 199.398, 1613.500 204.189 C 1617.900 206.744, 1625.550 210.109, 1630.500 211.667 C 1638.377 214.147, 1641.060 214.500, 1652 214.500 C 1663.033 214.500, 1665.440 214.177, 1672.513 211.747 C 1688.584 206.225, 1701.270 195.008, 1707.144 181.125 C 1709.995 174.386, 1710.376 172.397, 1710.421 164 C 1710.466 155.603, 1710.140 153.778, 1707.612 148.278 C 1700.513 132.834, 1685.167 124.619, 1660.388 122.999 C 1646.377 122.083, 1640.597 120.456, 1639.541 117.129 C 1637.395 110.369, 1649.803 105.291, 1662.050 107.917 C 1667.987 109.191, 1677.242 113.613, 1683.750 118.287 C 1688.957 122.026, 1687.737 123.001, 1700.362 105 L 1709.829 91.500 1706.349 87.891 C 1701.573 82.938, 1689.247 76.071, 1679.016 72.664 C 1672.125 70.369, 1668.306 69.759, 1659 69.465 C 1652.675 69.266, 1646.600 69.333, 1645.500 69.615 M 1738 69.984 C 1729.967 71.263, 1719.469 73.777, 1715.853 75.288 L 1712.319 76.764 1712.674 125.132 C 1712.869 151.735, 1713.296 182.172, 1713.624 192.771 L 1714.220 212.042 1733.199 211.771 L 1752.178 211.500 1752.049 193.750 C 1751.922 176.420, 1751.968 176, 1753.991 176 C 1755.130 176, 1756.306 176.787, 1756.604 177.750 C 1760.640 190.788, 1773.831 205.147, 1789.243 213.276 C 1796.655 217.185, 1813.627 221.561, 1817.555 220.576 L 1820 219.962 1820 201 L 1820 182.038 1817.250 181.474 C 1809.869 179.958, 1807.076 178.757, 1803.179 175.421 C 1800.852 173.429, 1798.249 170.449, 1797.396 168.798 C 1795.914 165.932, 1795.948 165.728, 1798.172 164.247 C 1802.893 161.101, 1811.217 151.513, 1813.982 146.035 C 1818.997 136.101, 1820.251 130.009, 1819.828 117.635 C 1819.472 107.241, 1819.204 105.999, 1815.789 98.965 C 1808.304 83.545, 1793.932 74.024, 1772 69.954 C 1766.617 68.955, 1744.337 68.975, 1738 69.984 M 1178.887 72.402 C 1164.728 76.093, 1155.230 81.773, 1144.895 92.728 C 1134.273 103.989, 1128.700 115.835, 1125.590 133.765 C 1124.366 140.823, 1124.355 143.258, 1125.516 150.426 C 1127.552 163.008, 1128.760 166.701, 1133.851 175.914 C 1143.347 193.099, 1160.338 206.182, 1180.002 211.450 C 1193.158 214.975, 1202.737 214.894, 1215.322 211.153 C 1226.569 207.809, 1233.975 203.583, 1241.878 196 C 1249.014 189.152, 1253.185 183.101, 1257.204 173.763 C 1259.915 167.466, 1260.391 165.026, 1260.785 155.417 C 1261.323 142.279, 1259.431 133.550, 1255.711 132.001 C 1254.495 131.495, 1247.650 129.897, 1240.500 128.450 C 1233.350 127.003, 1220.300 124.335, 1211.500 122.522 C 1197.584 119.654, 1195.388 119.420, 1194.638 120.724 C 1193.878 122.045, 1188.319 148.350, 1187.726 153.433 C 1187.481 155.529, 1187.533 155.545, 1209 160.054 C 1214.775 161.267, 1219.694 162.433, 1219.932 162.645 C 1220.970 163.572, 1213.040 170.324, 1208.012 172.793 C 1190.499 181.394, 1170.581 169.088, 1166.856 147.365 C 1163.815 129.631, 1174.614 112.298, 1190.797 108.938 C 1198.544 107.330, 1208.859 109.052, 1215.316 113.032 C 1217.965 114.664, 1220.665 115.981, 1221.316 115.958 C 1222.538 115.914, 1239.941 88.942, 1240.754 85.831 C 1241.089 84.553, 1239.542 83.027, 1235.001 80.156 C 1229.338 76.576, 1222.849 74.259, 1209.736 71.135 C 1202.106 69.317, 1188.587 69.872, 1178.887 72.402 M 1319.125 88.733 C 1316.732 100.649, 1314.795 126.483, 1315.281 140 C 1315.791 154.182, 1316.824 159.326, 1319.930 163.161 C 1321.749 165.409, 1321.873 165.425, 1323.801 163.680 C 1328.233 159.670, 1330.546 138.223, 1328.422 120.838 C 1326.197 102.618, 1322.603 84.491, 1321.023 83.514 C 1320.607 83.257, 1319.753 85.606, 1319.125 88.733 M 217.650 95.576 L 212.801 97.119 213.150 114.010 C 213.375 124.856, 213.907 131.308, 214.638 132.039 C 215.272 132.673, 218.729 133.153, 222.453 133.124 C 227.687 133.084, 230.339 132.471, 234.719 130.287 C 242.666 126.323, 246.281 121.492, 246.729 114.235 C 247.165 107.164, 244.549 102.035, 238.247 97.606 C 233.098 93.987, 225.119 93.201, 217.650 95.576 M 992.500 95.358 L 988.500 96.562 988.226 113.957 C 988.045 125.381, 988.320 131.720, 989.026 132.426 C 990.932 134.331, 1002.060 133.511, 1007.727 131.047 C 1014.208 128.228, 1020.466 121.658, 1021.398 116.694 C 1023.494 105.522, 1013.049 93.952, 1001 94.099 C 998.525 94.129, 994.700 94.696, 992.500 95.358 M 365 98.883 C 354.569 102.301, 346.670 109.208, 342.135 118.880 C 339.865 123.722, 339.501 125.816, 339.507 134 C 339.514 142.549, 339.827 144.160, 342.630 150.091 C 346.312 157.879, 352.360 164.044, 360 167.798 C 364.916 170.213, 366.614 170.500, 376 170.500 C 385.729 170.500, 386.994 170.266, 393.225 167.314 C 401.291 163.493, 407.828 157.088, 411.692 149.218 C 414.176 144.159, 414.498 142.405, 414.484 134 C 414.471 125.972, 414.090 123.725, 412.023 119.500 C 408.718 112.744, 400.784 105.010, 393.513 101.458 C 388.272 98.898, 386.276 98.504, 377.513 98.299 C 372.006 98.170, 366.375 98.433, 365 98.883 M 1760 102.674 C 1755.382 103.448, 1752.071 105.200, 1751.434 107.207 C 1751.087 108.303, 1751.125 115.655, 1751.519 123.546 L 1752.236 137.893 1755.140 138.531 C 1761.983 140.034, 1774.170 135.379, 1778.196 129.725 C 1782.412 123.804, 1782.258 115.997, 1777.802 109.727 C 1774.485 105.060, 1765.946 101.677, 1760 102.674 M 1761.385 113.440 C 1760.491 115.770, 1761.477 126.334, 1762.624 126.712 C 1763.242 126.916, 1765.155 125.899, 1766.874 124.452 C 1771.965 120.169, 1770.618 114.286, 1764.189 112.719 C 1762.780 112.375, 1761.685 112.657, 1761.385 113.440 M 1177.545 128.291 C 1175.388 131.582, 1174 136.655, 1174 141.243 C 1174 145.349, 1175.649 146.348, 1176.485 142.750 C 1178.131 135.668, 1179.808 126.474, 1179.508 126.175 C 1179.316 125.983, 1178.433 126.935, 1177.545 128.291 M 1487.741 145.654 C 1488.013 153.269, 1488.643 159.938, 1489.140 160.473 C 1489.638 161.008, 1491.672 161.306, 1493.659 161.135 C 1495.889 160.942, 1497.592 161.336, 1498.107 162.162 C 1498.748 163.190, 1499.683 162.761, 1502.141 160.310 L 1505.342 157.120 1499.421 150.785 C 1496.164 147.301, 1492.093 141.606, 1490.373 138.130 L 1487.246 131.808 1487.741 145.654" stroke="none" fill="#070e16" fill-rule="evenodd"/><path d="M 635.426 22.746 C 640.116 22.985, 642.708 23.586, 643.454 24.606 C 644.282 25.738, 646.043 26.022, 650.528 25.746 L 656.500 25.378 650.250 25.189 C 645.445 25.044, 644 24.653, 644 23.500 C 644 22.279, 642.559 22.036, 636.250 22.196 L 628.500 22.392 635.426 22.746 M 718.784 23.738 C 721.689 23.941, 726.189 23.939, 728.784 23.734 C 731.378 23.528, 729 23.363, 723.500 23.365 C 718 23.368, 715.878 23.536, 718.784 23.738 M 170 25.555 C 170.825 25.732, 177.350 26.044, 184.500 26.247 C 191.650 26.451, 196.150 26.307, 194.500 25.927 C 192.850 25.547, 186.325 25.236, 180 25.234 C 173.675 25.233, 169.175 25.377, 170 25.555 M 119.784 26.738 C 122.689 26.941, 127.189 26.939, 129.784 26.734 C 132.378 26.528, 130 26.363, 124.500 26.365 C 119 26.368, 116.878 26.536, 119.784 26.738 M 61.750 27.743 C 65.737 27.932, 72.263 27.932, 76.250 27.743 C 80.237 27.553, 76.975 27.397, 69 27.397 C 61.025 27.397, 57.763 27.553, 61.750 27.743 M 1471.250 38.739 C 1474.412 38.937, 1479.588 38.937, 1482.750 38.739 C 1485.912 38.541, 1483.325 38.378, 1477 38.378 C 1470.675 38.378, 1468.088 38.541, 1471.250 38.739 M 459.750 44.680 C 458.139 45.110, 458 47.263, 457.997 71.823 L 457.995 98.500 454.380 92.500 C 442.063 72.053, 423.151 57.285, 400.451 50.388 C 392.603 48.004, 389.836 47.669, 378 47.672 C 367.249 47.675, 362.769 48.130, 356 49.907 C 340.964 53.854, 326.833 61.815, 315.866 72.519 C 309.548 78.684, 301.869 88.329, 298.689 94.093 L 296.877 97.376 293.577 89.192 C 289.486 79.044, 286.381 74.510, 278.527 67.214 C 263.030 52.817, 246.603 47.580, 217 47.596 C 200.025 47.606, 184.438 49.830, 175.670 53.493 C 170.556 55.630, 170 55.433, 170 51.489 L 170 47.978 137.250 48.476 C 119.237 48.751, 91.787 49.257, 76.250 49.602 L 48 50.228 48 135.628 L 48 221.028 79.121 220.764 L 110.243 220.500 110.122 208.500 C 110.055 201.900, 109.716 190.383, 109.368 182.908 C 108.806 170.839, 108.920 169.245, 110.384 168.683 C 111.291 168.335, 122.176 168.010, 134.572 167.961 C 152.328 167.891, 157.220 167.590, 157.622 166.543 C 157.902 165.813, 157.179 153.400, 156.016 138.959 C 154.852 124.518, 154.144 112.068, 154.442 111.291 C 154.808 110.336, 156.202 109.979, 158.742 110.189 L 162.500 110.500 163.110 164.500 C 163.446 194.200, 163.783 218.613, 163.860 218.750 C 163.937 218.887, 177.950 219, 195 219 L 226 219 226 211.500 C 226 207.375, 226.338 204.006, 226.750 204.013 C 227.162 204.020, 230.602 206.522, 234.392 209.573 C 249.258 221.538, 267.750 228, 287.128 228 L 298 228 298 200.287 L 298 172.575 303.184 180.391 C 321.932 208.663, 355.417 224.894, 387.056 221.047 C 402.046 219.224, 415.394 214.089, 427.562 205.464 C 435.758 199.654, 448.718 185.740, 453 178.152 C 459.310 166.971, 458.933 165.884, 458.968 195.392 L 459 222.284 477.750 221.631 C 488.063 221.271, 501.900 220.703, 508.500 220.368 L 520.500 219.759 520.176 190.629 C 519.875 163.647, 519.972 161.618, 521.491 163.101 C 522.393 163.981, 532.240 177.031, 543.375 192.101 L 563.619 219.500 591.658 219.765 L 619.696 220.031 620.243 165.953 C 620.544 136.211, 621.100 111.566, 621.477 111.188 C 621.854 110.810, 629.928 110.352, 639.418 110.172 L 656.673 109.843 657.335 143.672 C 657.699 162.277, 657.998 187.567, 657.998 199.872 L 658 222.243 676.250 221.518 C 686.288 221.118, 700.125 220.501, 707 220.146 L 719.500 219.500 719.141 163.750 L 718.782 108 727.141 107.995 C 731.739 107.993, 740.637 107.695, 746.915 107.333 L 758.330 106.676 757.645 163.492 L 756.961 220.308 836.230 219.490 C 879.829 219.040, 934.625 218.634, 958 218.586 L 1000.500 218.500 1000.794 211.250 C 1000.955 207.262, 1001.325 204, 1001.614 204 C 1001.904 204, 1004.247 205.765, 1006.821 207.923 C 1014.879 214.678, 1026.136 220.943, 1036 224.162 C 1044.074 226.797, 1047.489 227.337, 1058.750 227.762 L 1072 228.261 1072 197.278 L 1072 166.295 1063.411 165.635 C 1058.686 165.272, 1053.947 164.507, 1052.879 163.935 C 1051.057 162.960, 1051.203 162.590, 1055.240 157.976 C 1061.178 151.188, 1065.668 143.499, 1068.753 134.835 C 1071.077 128.310, 1071.373 125.954, 1071.433 113.500 C 1071.491 101.286, 1071.192 98.559, 1069.084 92.124 C 1059.180 61.887, 1029.056 45.411, 987.161 47.319 C 968.060 48.189, 955.103 51.041, 940.370 57.617 C 939.616 57.954, 939.103 55.956, 938.825 51.599 C 938.597 48.012, 938.205 44.899, 937.955 44.682 C 937.705 44.464, 928.725 44.649, 918 45.091 C 875.530 46.843, 825.871 48.009, 793.857 48.005 C 763.670 48, 760.150 47.832, 759.588 46.368 C 759.026 44.904, 756.892 44.803, 738.731 45.387 C 677.780 47.347, 621.657 48.062, 620.931 46.889 C 620.361 45.965, 613.642 45.847, 592.343 46.386 C 577.029 46.773, 563.494 47.342, 562.265 47.650 L 560.029 48.209 559.765 77.736 L 559.500 107.263 537.500 78.450 C 525.400 62.603, 515.050 49.060, 514.500 48.355 C 513.410 46.958, 507.545 46.433, 482.500 45.490 C 473.700 45.159, 465.375 44.736, 464 44.551 C 462.625 44.365, 460.712 44.423, 459.750 44.680 M 893.500 57.147 C 840.220 58.864, 825.117 59.550, 824.381 60.285 C 823.746 60.921, 824.801 100.057, 827.920 191.500 L 828.500 208.500 848.500 208.296 C 859.500 208.184, 882.748 207.796, 900.163 207.433 C 931.389 206.783, 931.834 206.744, 932.399 204.637 C 932.715 203.462, 932.979 194.596, 932.986 184.936 L 933 167.372 927.250 167.699 C 916.100 168.332, 868.550 169.884, 868.290 169.623 C 868.145 169.478, 867.908 165.341, 867.763 160.430 L 867.500 151.500 885 150.872 C 894.625 150.526, 906.891 150.189, 912.257 150.122 L 922.014 150 921.514 143.250 C 921.240 139.537, 920.737 130.692, 920.398 123.592 L 919.780 110.684 892.499 111.312 L 865.217 111.939 864.622 109.719 C 864.295 108.499, 864.021 104.912, 864.014 101.750 L 864 96 895.750 95.985 C 913.212 95.976, 928.108 95.584, 928.851 95.113 C 929.978 94.399, 930.002 91.202, 928.998 75.878 C 928.335 65.770, 927.588 57.163, 927.338 56.750 C 927.087 56.337, 925.221 56.070, 923.191 56.155 C 921.161 56.240, 907.800 56.686, 893.500 57.147 M 470 118.341 C 470 152.079, 470.298 186.569, 470.662 194.986 L 471.325 210.290 487.912 209.662 C 497.036 209.316, 505.574 209.025, 506.887 209.016 L 509.273 209 508.536 168 C 508.131 145.450, 508.182 127.017, 508.650 127.039 C 509.117 127.060, 514.207 133.472, 519.959 141.289 C 525.712 149.105, 539.362 167.537, 550.293 182.250 L 570.168 209 589.584 209 L 609 209 609 133.131 L 609 57.263 592.750 57.686 C 583.813 57.919, 575.551 58.303, 574.391 58.539 C 571.353 59.156, 571.019 63.746, 571.009 104.964 C 571.001 135.867, 570.814 140.240, 569.558 138.964 C 568.102 137.486, 540.371 101.263, 519.365 73.402 L 507.983 58.305 496.741 57.657 C 490.559 57.301, 482.012 57.007, 477.750 57.005 L 470 57 470 118.341 M 674.500 58.093 C 631.325 59.252, 626.210 59.452, 625.657 60.007 C 625.296 60.370, 627.458 96.975, 627.943 98.704 C 627.974 98.816, 637.225 98.633, 648.500 98.296 L 669 97.685 669 153.992 L 669 210.298 687.698 209.586 C 697.983 209.194, 706.758 208.650, 707.198 208.377 C 707.639 208.105, 708 183.003, 708 152.595 L 708 97.307 720.157 96.654 C 726.843 96.294, 736.492 96, 741.598 96 C 746.704 96, 751.118 95.618, 751.406 95.152 C 751.695 94.685, 751.280 86.698, 750.486 77.402 C 749.691 68.106, 749.032 59.712, 749.021 58.750 C 749.002 57.131, 747.303 57.012, 726.250 57.158 C 713.737 57.244, 690.450 57.665, 674.500 58.093 M 194.160 60.557 C 190.123 61.294, 183.936 62.857, 180.410 64.030 L 174 66.163 174.139 103.832 C 174.215 124.549, 174.552 156.350, 174.889 174.500 L 175.500 207.500 182 207.831 C 185.575 208.013, 194.528 207.850, 201.895 207.470 L 215.290 206.780 214.589 188.390 L 213.888 170 216.393 170 C 218.516 170, 219.549 171.249, 223.158 178.186 C 234.261 199.529, 255.042 213.326, 280.771 216.437 L 286.043 217.075 285.771 197.314 L 285.500 177.554 281.344 176.845 C 275.141 175.787, 269.731 172.638, 265.122 167.401 C 262.855 164.826, 261 162.300, 261 161.788 C 261 161.276, 264.719 157.177, 269.265 152.679 C 281.524 140.547, 286 129.794, 286 112.471 C 286 86.457, 270.474 68.047, 242.590 60.999 C 236.134 59.367, 231.631 59.020, 218.090 59.108 C 208.966 59.168, 198.197 59.819, 194.160 60.557 M 359.021 61.012 C 336.102 67.183, 317.971 82.057, 307.230 103.500 C 302.903 112.138, 301.019 119.252, 300.330 129.549 C 298.963 149.979, 306.050 168.625, 321.273 184.651 C 329.681 193.502, 335.065 197.582, 344.753 202.444 C 364.277 212.243, 388.589 212.641, 407.883 203.479 C 437.697 189.320, 455.629 160.764, 453.688 130.535 C 452.966 119.292, 450.987 111.583, 446.419 102.228 C 437.522 84.004, 420.489 69.158, 400.833 62.495 C 389.411 58.623, 370.398 57.949, 359.021 61.012 M 966.318 61.007 C 961.269 62.018, 955.135 63.731, 952.688 64.814 L 948.239 66.782 948.658 132.641 C 948.889 168.863, 949.304 200.354, 949.580 202.620 C 950.074 206.660, 950.172 206.752, 954.681 207.370 C 957.210 207.716, 965.966 208, 974.140 208 L 989 208 989 189 L 989 170 991.281 170 C 993.118 170, 994.268 171.428, 997.197 177.348 C 1007.845 198.867, 1029.016 213.278, 1054.750 216.525 L 1060 217.188 1060 197.094 L 1060 177 1056.968 177 C 1050.519 177, 1041.764 171.622, 1037.347 164.948 L 1034.773 161.058 1042.892 153.420 C 1053.356 143.576, 1058.477 133.927, 1060.098 121 C 1063.886 90.789, 1047.805 68.420, 1017 61.048 C 1005.561 58.311, 979.887 58.290, 966.318 61.007 M 81.891 60.749 L 60.282 61.038 59.587 72.030 C 58.926 82.468, 59.083 176.966, 59.797 198.750 L 60.133 209 79.685 209 L 99.237 209 98.648 200.750 C 98.325 196.213, 97.934 184.625, 97.780 175 L 97.500 157.500 121.169 157 C 134.186 156.725, 145.027 156.275, 145.258 156 C 145.489 155.725, 145.103 148.300, 144.401 139.500 C 143.698 130.700, 143.095 121.978, 143.061 120.118 L 143 116.737 119.500 117.468 L 96 118.200 96 109.736 L 96 101.272 100.640 100.636 C 103.191 100.286, 109.644 100, 114.980 100 C 120.315 100, 132.177 99.704, 141.340 99.343 L 158 98.686 158 79.343 L 158 60 130.750 60.229 C 115.762 60.356, 93.776 60.589, 81.891 60.749 M 769.663 92.250 C 769.300 109.988, 769.003 143.512, 769.002 166.750 L 769 209 787.836 209 L 806.673 209 807.336 153.335 C 807.701 122.720, 808 89.195, 808 78.835 L 808 60 789.162 60 L 770.323 60 769.663 92.250 M 1460 68.113 C 1449.825 68.558, 1428.800 69.303, 1413.277 69.768 C 1397.755 70.232, 1384.873 70.812, 1384.651 71.056 C 1384.429 71.300, 1384.627 82.525, 1385.093 96 C 1385.558 109.475, 1386.403 134, 1386.972 150.500 C 1387.540 167, 1388.301 187.655, 1388.662 196.400 L 1389.320 212.301 1413.660 211.650 C 1427.047 211.293, 1449.025 210.705, 1462.500 210.345 L 1487 209.690 1487 191.193 L 1487 172.697 1472.750 173.338 C 1464.912 173.691, 1451.259 174.276, 1442.409 174.637 L 1426.318 175.293 1425.641 166.497 C 1425.270 161.659, 1425.092 157.575, 1425.246 157.420 C 1425.401 157.266, 1437.163 156.814, 1451.384 156.416 L 1477.241 155.693 1476.579 141.596 C 1476.214 133.843, 1475.659 125.585, 1475.344 123.245 L 1474.771 118.990 1448.978 119.653 L 1423.185 120.315 1422.800 113.408 C 1422.588 109.608, 1422.659 106.194, 1422.958 105.820 C 1423.256 105.447, 1437.338 104.818, 1454.250 104.423 C 1480.156 103.818, 1485 103.476, 1485 102.251 C 1485 98.931, 1482.841 71.323, 1482.419 69.250 C 1482.139 67.872, 1481.291 67.059, 1480.231 67.151 C 1479.279 67.234, 1470.175 67.667, 1460 68.113 M 1351.192 73.500 C 1341.123 76.405, 1332.688 78.978, 1332.449 79.218 C 1332.209 79.458, 1332.943 83.894, 1334.080 89.077 C 1342.562 127.756, 1341.671 161.333, 1331.866 172.500 C 1327.546 177.420, 1322.323 178.679, 1316.648 176.169 C 1305.522 171.247, 1301.357 150.889, 1304.509 116.842 C 1305.443 106.754, 1306.780 94.675, 1307.480 90 C 1308.180 85.325, 1308.471 81.211, 1308.126 80.858 C 1307.782 80.505, 1298.984 78.130, 1288.576 75.581 C 1274.918 72.235, 1269.453 71.267, 1268.937 72.102 C 1267.843 73.872, 1265.025 88.894, 1263.549 100.815 C 1261.872 114.370, 1261.609 139.104, 1263.032 149.500 C 1268.710 190.999, 1289.651 214, 1321.755 214 C 1333.433 214, 1341.710 211.675, 1350.532 205.916 C 1374.460 190.295, 1385.014 154.042, 1379.475 106.497 C 1377.368 88.411, 1372.768 68.945, 1370.483 68.436 C 1369.942 68.316, 1361.261 70.595, 1351.192 73.500 M 1538 70.627 C 1522.975 73.519, 1509.036 82.730, 1501.679 94.631 C 1494.901 105.595, 1494.150 121.768, 1499.878 133.404 C 1503.657 141.080, 1511.401 149.020, 1519.463 153.482 C 1527.362 157.855, 1531.388 158.933, 1543.831 160.007 C 1560.431 161.439, 1564.583 163.764, 1561.941 170.143 C 1560.502 173.617, 1555.421 176.460, 1549 177.386 C 1540.530 178.607, 1526.605 173.413, 1520.054 166.589 C 1518.158 164.615, 1516.337 163, 1516.007 163 C 1515.019 163, 1491 189.790, 1491 190.892 C 1491 192.823, 1503.525 202.044, 1511.500 205.983 C 1537.669 218.910, 1567.858 216.101, 1586.367 199.017 C 1598.406 187.904, 1603.654 175.863, 1602.811 161.291 C 1601.764 143.216, 1590.712 131.169, 1570.415 125.978 C 1566.161 124.890, 1559.685 124, 1556.024 124 C 1543.473 124, 1532.761 121.019, 1531.776 117.253 C 1529.272 107.678, 1549.417 103.542, 1564.794 110.475 C 1568.255 112.035, 1573.204 114.817, 1575.790 116.656 C 1578.377 118.495, 1580.945 119.977, 1581.497 119.949 C 1582.049 119.921, 1586.894 113.592, 1592.264 105.885 C 1599.068 96.120, 1601.781 91.432, 1601.215 90.419 C 1600.040 88.319, 1590.305 81.188, 1584.818 78.408 C 1573.967 72.909, 1565.180 70.742, 1552.500 70.436 C 1545.900 70.277, 1539.375 70.363, 1538 70.627 M 1640.645 71.584 C 1616.042 77.540, 1599.176 99.961, 1602.958 121.681 C 1605.140 134.207, 1611.758 144.355, 1622.249 151.260 C 1630.517 156.701, 1638.082 159.029, 1650.888 160.073 C 1664.327 161.169, 1668.329 162.864, 1668.803 167.665 C 1669.210 171.775, 1664.793 175.486, 1657.754 176.947 C 1648.214 178.928, 1637.452 175.563, 1627.561 167.507 L 1621.774 162.793 1617.137 168.120 C 1614.587 171.050, 1609.237 177.047, 1605.250 181.446 C 1601.263 185.845, 1598 189.985, 1598 190.645 C 1598 193.022, 1608.683 201.197, 1617.500 205.568 C 1630.953 212.236, 1640.761 214.375, 1654.975 213.744 C 1667.802 213.175, 1675.521 210.939, 1685.595 204.877 C 1709.830 190.294, 1717.450 157.690, 1700.865 139.542 C 1691.615 129.421, 1681.523 125.395, 1661.886 123.992 C 1647.649 122.974, 1641.903 121.656, 1639.334 118.816 C 1636.678 115.882, 1638.572 111.969, 1643.963 109.250 C 1653.296 104.542, 1668.039 107.107, 1680.790 115.658 C 1684.394 118.075, 1687.764 119.912, 1688.279 119.740 C 1688.794 119.569, 1693.625 113.144, 1699.015 105.464 L 1708.815 91.500 1706.657 89.109 C 1703.397 85.495, 1692.265 78.530, 1685.087 75.613 C 1671.701 70.174, 1653.344 68.510, 1640.645 71.584 M 1733.492 71.469 C 1728.538 72.227, 1721.865 73.827, 1718.662 75.025 L 1712.840 77.203 1713.440 125.852 C 1713.770 152.608, 1714.305 182.712, 1714.628 192.750 L 1715.217 211 1733.358 211.001 L 1751.500 211.002 1751.169 193.001 L 1750.838 175 1753.389 175 C 1755.578 175, 1756.419 176.028, 1759.318 182.250 C 1767.327 199.434, 1784.260 213.079, 1803.766 218.068 C 1807.921 219.131, 1813.048 220, 1815.160 220 L 1819 220 1819 201.200 L 1819 182.400 1813.126 181.187 C 1806.637 179.847, 1799.279 174.374, 1796.349 168.709 C 1794.799 165.710, 1794.825 165.605, 1797.633 163.646 C 1806.934 157.157, 1815.668 143.735, 1818.047 132.274 C 1818.742 128.927, 1819.051 122.243, 1818.786 116.288 C 1818.372 106.992, 1817.994 105.373, 1814.663 98.632 C 1808.502 86.168, 1796.267 76.798, 1780.465 72.443 C 1772.266 70.183, 1745.521 69.629, 1733.492 71.469 M 1182.196 72.049 C 1162.723 75.537, 1142.726 91.291, 1133.504 110.412 C 1127.752 122.335, 1125.801 130.298, 1125.762 142 C 1125.637 179.426, 1155.579 210.643, 1193.592 212.720 C 1221.404 214.239, 1245.405 199.389, 1256.172 174 C 1259.042 167.231, 1259.385 165.330, 1259.691 154.500 C 1259.962 144.928, 1259.673 141.501, 1258.265 137.561 L 1256.500 132.622 1245.500 130.327 C 1239.450 129.065, 1225.799 126.188, 1215.165 123.934 C 1204.531 121.680, 1195.671 119.996, 1195.475 120.191 C 1195.280 120.387, 1193.468 128.128, 1191.449 137.395 C 1188.885 149.160, 1188.110 154.450, 1188.881 154.926 C 1189.487 155.301, 1196.738 156.909, 1204.992 158.498 C 1221.863 161.747, 1222.694 162.427, 1216.472 167.890 C 1209.655 173.876, 1205.347 175.475, 1196 175.488 C 1188.521 175.499, 1186.939 175.170, 1182.834 172.757 C 1173.713 167.395, 1166.496 156.037, 1165.371 145.273 C 1163.737 129.644, 1174.015 112.865, 1187.519 109.116 C 1196.786 106.544, 1209.985 108.465, 1217.342 113.457 L 1220.977 115.924 1224.834 110.212 C 1226.955 107.070, 1231.441 100.120, 1234.802 94.767 L 1240.912 85.035 1237.706 82.632 C 1233.115 79.190, 1227.524 76.547, 1219.500 74.025 C 1211.483 71.505, 1191.224 70.432, 1182.196 72.049 M 222.500 94.681 C 221.400 94.928, 219.037 95.586, 217.250 96.143 L 214 97.155 214 114.471 C 214 133.814, 213.675 133, 221.400 133 C 232.881 133, 244.944 125.148, 246.541 116.635 C 248.892 104.100, 235.405 91.783, 222.500 94.681 M 996.500 94.631 C 995.400 94.906, 993.038 95.586, 991.250 96.143 L 988 97.155 988 112.512 C 988 120.959, 988.439 129.024, 988.975 130.435 C 989.870 132.788, 990.437 133, 995.850 133 C 1014.678 133, 1026.090 118.952, 1018.672 104.907 C 1014.863 97.695, 1004.138 92.724, 996.500 94.631 M 363.678 99.968 C 356.200 102.357, 350.786 106.145, 346.614 111.907 C 333.123 130.539, 339.312 157.136, 359.447 167.048 C 373.561 173.997, 390.724 171.348, 402.980 160.328 C 417.416 147.349, 418.258 123.493, 404.755 109.990 C 394.004 99.239, 378.102 95.359, 363.678 99.968 M 1755 103.306 L 1751.500 104.500 1751.500 121.436 L 1751.500 138.373 1754.841 139.239 C 1762.105 141.121, 1773.726 136.481, 1779.171 129.524 C 1782.748 124.955, 1782.494 115.764, 1778.638 110.200 C 1773.654 103.007, 1764.072 100.213, 1755 103.306 M 931.331 110.250 C 931.636 112.037, 932.171 122.275, 932.520 133 C 933.213 154.280, 933.441 156, 935.567 156 C 936.772 156, 937 152.099, 937 131.500 L 937 107 933.889 107 C 930.932 107, 930.805 107.161, 931.331 110.250 M 367.663 110.447 C 359.068 113.982, 356.262 116.615, 352.325 124.842 C 342.761 144.830, 363.954 166.823, 385.789 159.570 C 396.363 156.058, 402.333 149.042, 404.416 137.680 C 405.565 131.416, 401.765 121.499, 396.109 116 C 387.923 108.041, 378.153 106.134, 367.663 110.447 M 284.500 153.160 C 282.300 155.936, 279.608 159.307, 278.519 160.651 C 276.874 162.681, 276.776 163.244, 277.942 163.964 C 279.637 165.012, 292.891 166.443, 293.671 165.662 C 294.297 165.036, 289.771 147.982, 289 148.062 C 288.725 148.091, 286.700 150.385, 284.500 153.160 M 1847.240 200.227 L 1847 247.954 1829.250 248.252 L 1811.500 248.549 1829.281 248.775 C 1842.754 248.945, 1847.179 248.697, 1847.542 247.750 C 1847.805 247.063, 1847.899 225.350, 1847.750 199.500 L 1847.480 152.500 1847.240 200.227 M 136.220 190.701 L 140.939 191.107 141.266 202.804 L 141.592 214.500 141.546 202.500 L 141.500 190.500 136.500 190.398 L 131.500 190.296 136.220 190.701 M 319 238.417 C 319 245.216, 318.585 250.039, 317.975 250.342 C 317.411 250.621, 317.524 250.735, 318.225 250.595 C 319.136 250.413, 319.643 247.004, 320 238.668 C 320.275 232.248, 320.163 226.997, 319.750 226.998 C 319.337 226.999, 319 232.137, 319 238.417 M 208.750 234.746 C 214.387 234.924, 223.613 234.924, 229.250 234.746 C 234.887 234.568, 230.275 234.422, 219 234.422 C 207.725 234.422, 203.113 234.568, 208.750 234.746 M 1498.206 238.741 C 1501.895 238.932, 1508.195 238.934, 1512.206 238.743 C 1516.218 238.553, 1513.200 238.396, 1505.500 238.395 C 1497.800 238.393, 1494.518 238.549, 1498.206 238.741 M 1461.250 239.742 C 1464.963 239.934, 1471.037 239.934, 1474.750 239.742 C 1478.463 239.549, 1475.425 239.392, 1468 239.392 C 1460.575 239.392, 1457.537 239.549, 1461.250 239.742 M 1707.819 239.749 C 1721.195 239.907, 1742.795 239.907, 1755.819 239.749 C 1768.844 239.591, 1757.900 239.462, 1731.500 239.462 C 1705.100 239.463, 1694.444 239.592, 1707.819 239.749 M 552.861 242.261 C 553.280 242.680, 572.270 242.905, 595.061 242.761 L 636.500 242.499 594.299 241.999 C 571.089 241.725, 552.442 241.843, 552.861 242.261 M 734.864 242.265 C 735.286 242.686, 749.101 242.911, 765.565 242.764 L 795.500 242.498 764.799 241.999 C 747.913 241.725, 734.443 241.844, 734.864 242.265 M 877.750 241.743 C 881.737 241.932, 888.263 241.932, 892.250 241.743 C 896.237 241.553, 892.975 241.397, 885 241.397 C 877.025 241.397, 873.763 241.553, 877.750 241.743 M 828.250 242.739 C 831.413 242.937, 836.587 242.937, 839.750 242.739 C 842.913 242.541, 840.325 242.378, 834 242.378 C 827.675 242.378, 825.087 242.541, 828.250 242.739" stroke="none" fill="#e1e1e1" fill-rule="evenodd"/><path d="M 1373 36.516 C 1367.225 38.339, 1352.647 42.817, 1340.603 46.468 L 1318.707 53.105 1285.103 45.011 C 1266.622 40.560, 1250.996 36.748, 1250.380 36.540 C 1249.715 36.316, 1248.357 39.579, 1247.036 44.581 C 1245.813 49.212, 1244.459 53, 1244.027 53 C 1243.595 53, 1240.825 51.894, 1237.871 50.542 C 1234.917 49.190, 1228 46.828, 1222.500 45.292 C 1213.292 42.721, 1211.114 42.501, 1195 42.508 C 1178.730 42.515, 1176.832 42.714, 1168 45.335 C 1138.927 53.964, 1117.536 73.322, 1105.476 101.916 C 1100.908 112.748, 1099.282 119.381, 1098.083 132.072 C 1095.838 155.844, 1101.116 177.154, 1114.194 197.121 C 1129.005 219.733, 1150.777 233.774, 1180 239.561 C 1195.082 242.547, 1215.452 240.434, 1230 234.374 C 1238.341 230.900, 1246.817 225.830, 1253.501 220.317 L 1260.146 214.835 1265.823 220.220 C 1283.530 237.017, 1306.338 244.745, 1330.317 242.071 C 1339.679 241.027, 1353.557 236.831, 1358.620 233.513 C 1361.877 231.379, 1362 231.485, 1362 236.441 C 1362 238.884, 1362.338 241.066, 1362.750 241.291 C 1363.162 241.515, 1383.750 241.130, 1408.500 240.434 C 1508.176 237.631, 1516.865 237.567, 1523.500 239.596 C 1528.257 241.051, 1532.815 241.430, 1545.500 241.425 C 1564.764 241.418, 1572.174 239.748, 1587.601 231.938 L 1597.701 226.824 1604.771 230.385 C 1608.659 232.343, 1617.164 235.611, 1623.670 237.647 C 1635.182 241.250, 1635.930 241.352, 1651.500 241.414 C 1665.224 241.470, 1668.695 241.152, 1675.904 239.179 C 1681.464 237.657, 1684.525 237.231, 1684.951 237.920 C 1685.378 238.611, 1701.537 239.056, 1733.047 239.243 L 1780.500 239.525 1787.821 242.322 C 1799.002 246.593, 1809.247 247.997, 1829.250 247.999 L 1847 248 1847 200.570 L 1847 153.139 1844.750 152.820 C 1842.004 152.430, 1842.027 151.217, 1844.979 140.500 C 1847.685 130.676, 1848.065 111.003, 1845.732 101.500 C 1837.874 69.497, 1812.800 48.232, 1776.059 42.413 C 1755.831 39.209, 1723.665 42.101, 1707.398 48.586 L 1701.296 51.019 1696.805 49.032 C 1682.069 42.513, 1658.148 39.411, 1642.315 41.965 C 1632.693 43.517, 1620.239 47.843, 1612.027 52.485 C 1608.606 54.418, 1605.343 56, 1604.776 56 C 1604.208 56, 1601.439 54.693, 1598.622 53.095 C 1591.441 49.022, 1577.281 44.234, 1567.240 42.483 C 1550.594 39.580, 1535.259 40.843, 1518.391 46.505 C 1514.303 47.877, 1510.742 49, 1510.479 49 C 1510.216 49, 1510 46.525, 1510 43.500 C 1510 38.461, 1509.812 38.001, 1507.750 38.008 C 1506.513 38.012, 1484.575 38.666, 1459 39.461 C 1433.425 40.257, 1407.588 41.041, 1401.585 41.204 L 1390.670 41.500 1389.252 37.250 C 1387.518 32.056, 1387.177 32.041, 1373 36.516 M 921.500 37.098 C 865.014 39.345, 838.185 40.011, 804.357 40.006 C 771.273 40.001, 767.147 39.826, 766.602 38.404 C 766.058 36.987, 763.712 36.875, 745.745 37.408 C 734.610 37.738, 703.993 38.515, 677.706 39.135 C 635.074 40.140, 629.782 40.096, 628.706 38.729 C 627.651 37.388, 624.932 37.307, 607 38.082 C 595.725 38.569, 579.023 39.245, 569.885 39.584 L 553.270 40.201 552.642 46.850 C 552.297 50.508, 552.011 60.193, 552.007 68.372 C 552.001 81.452, 551.820 83.095, 550.506 82.005 C 549.684 81.323, 541.942 71.578, 533.300 60.350 C 523.810 48.020, 516.778 39.772, 515.543 39.524 C 513.350 39.083, 462.674 36.972, 454.705 36.989 L 449.911 37 450.205 54.501 C 450.367 64.127, 450.369 72.002, 450.208 72.001 C 450.047 72.001, 446.672 69.173, 442.708 65.717 C 433.151 57.387, 427.684 53.715, 417.759 48.959 C 405.306 42.992, 392.181 40, 378.460 40 C 361.103 40, 349.524 42.686, 334.571 50.180 C 323.232 55.863, 315.190 61.921, 306.136 71.598 L 298.223 80.056 295.431 75.278 C 289.326 64.828, 276.364 53.718, 263.637 48.028 C 244.632 39.532, 213.065 37.205, 187.933 42.448 C 178.418 44.433, 178 44.410, 178 41.916 C 178 39.834, 177.956 39.832, 148.750 40.543 C 132.663 40.935, 101.950 41.536, 80.500 41.878 L 41.500 42.500 40.859 48.500 C 40.506 51.800, 40.168 93.537, 40.109 141.250 L 40 228 79.158 228 L 118.317 228 117.633 202 L 116.949 176 136.475 176 L 156 176 156 199.918 C 156 213.073, 156.273 224.548, 156.607 225.418 C 157.146 226.823, 161.520 227, 195.607 227 L 234 227 234 223.417 C 234 221.446, 234.338 219.987, 234.750 220.175 C 235.163 220.363, 240.225 222.854, 246 225.710 C 260.555 232.910, 268.502 234.760, 288.514 235.605 L 305 236.301 305 216.562 L 305 196.822 312.250 203.087 C 325.762 214.762, 339.404 222.334, 354.646 226.616 C 358.222 227.621, 365.948 228.444, 374.500 228.731 C 386.356 229.130, 389.848 228.881, 397.307 227.106 C 415.178 222.854, 429.773 214.909, 443.272 202.087 C 447.357 198.207, 450.991 195.325, 451.349 195.683 C 451.707 196.041, 452 203.974, 452 213.313 L 452 230.292 464.250 229.655 C 470.988 229.305, 484.825 228.774, 495 228.475 C 505.175 228.176, 516.763 227.683, 520.750 227.380 L 528 226.829 528 206.415 C 528 195.187, 528.337 186.013, 528.750 186.029 C 529.163 186.044, 536.469 195.494, 544.986 207.029 L 560.472 228 593.736 228 C 612.031 228, 627.067 227.887, 627.148 227.750 C 627.229 227.613, 627.567 202.975, 627.898 173 L 628.500 118.500 638 117.756 C 643.225 117.346, 648.063 117.219, 648.750 117.474 C 649.729 117.837, 650 129.963, 650 173.500 C 650 223.837, 650.153 229.121, 651.623 229.686 C 653.124 230.262, 694.699 228.765, 717.250 227.323 L 727 226.699 727 171.492 L 727 116.285 733.147 115.642 C 736.527 115.289, 741.702 115, 744.647 115 L 750 115 750 171.664 L 750 228.329 827.250 227.461 C 869.737 226.984, 927.788 226.750, 956.250 226.941 L 1008 227.289 1008 223.644 C 1008 221.640, 1008.166 220, 1008.368 220 C 1008.570 220, 1012.733 222.040, 1017.618 224.534 C 1033.941 232.866, 1047.731 236, 1068.072 236 L 1079 236 1079 197 L 1079 158 1072.500 158 C 1068.925 158, 1066 157.732, 1066 157.404 C 1066 157.077, 1066.924 155.511, 1068.053 153.925 C 1076.869 141.545, 1081.697 118.814, 1079.078 102.023 C 1075.779 80.877, 1065.435 64.710, 1047.977 53.416 C 1031.116 42.509, 1006.666 37.660, 980.500 40.033 C 970.280 40.960, 964.454 41.987, 948.250 45.715 C 946.243 46.177, 946 45.851, 946 42.698 C 946 37.970, 945.127 35.969, 943.143 36.151 C 942.239 36.234, 932.500 36.660, 921.500 37.098 M 1375 41.498 C 1329.714 55.288, 1320.388 58, 1318.246 58 C 1316.879 58, 1301.779 54.620, 1284.691 50.489 C 1267.603 46.358, 1253.326 43.320, 1252.965 43.739 C 1252.603 44.158, 1251.282 48.408, 1250.029 53.184 L 1247.751 61.868 1244.126 59.608 C 1238.436 56.060, 1226.253 51.374, 1217.500 49.367 C 1205.720 46.664, 1181.468 46.913, 1170.500 49.848 C 1116.029 64.424, 1087.110 128.918, 1111.437 181.570 C 1123.600 207.895, 1147.896 227.424, 1176.155 233.590 C 1186.070 235.753, 1206.431 235.819, 1215 233.716 C 1229.485 230.160, 1241.874 223.487, 1254.664 212.349 L 1260.829 206.981 1264.664 211.441 C 1273.641 221.877, 1288.109 230.953, 1301.500 234.547 C 1311.081 237.119, 1327.949 237.563, 1338 235.508 C 1345.964 233.879, 1355.586 229.776, 1362.500 225.060 C 1364.150 223.934, 1365.838 223.010, 1366.250 223.007 C 1366.662 223.003, 1367 225.989, 1367 229.643 L 1367 236.286 1384.250 235.650 C 1393.737 235.301, 1425.800 234.510, 1455.500 233.892 C 1485.200 233.275, 1510.004 232.364, 1510.621 231.869 C 1511.311 231.315, 1515.315 231.926, 1521.043 233.459 C 1533.491 236.790, 1542.620 237.488, 1554.971 236.052 C 1570.166 234.285, 1582.591 229.932, 1594.019 222.369 L 1597.674 219.950 1603.533 223.478 C 1610.417 227.623, 1622.291 232.351, 1631.763 234.719 C 1645.645 238.189, 1671.714 236.316, 1683.770 230.984 C 1689.512 228.444, 1690 228.484, 1690 231.500 L 1690 234 1732.031 234 C 1768.072 234, 1774.143 233.791, 1774.626 232.531 C 1775.097 231.304, 1775.956 231.448, 1779.845 233.405 C 1793.437 240.244, 1810.456 243.367, 1831 242.793 L 1841.500 242.500 1841.761 200.250 L 1842.022 158 1837.511 158 C 1835.030 158, 1833 157.829, 1833 157.621 C 1833 157.412, 1834.125 154.784, 1835.500 151.781 C 1839.852 142.274, 1842.097 131.521, 1842.135 120 C 1842.178 106.929, 1840.196 98.109, 1834.772 87.226 C 1825.588 68.800, 1808.632 55.778, 1786.446 50.114 C 1764.133 44.417, 1728.291 46.195, 1708.187 53.997 L 1700.875 56.835 1695.617 54.509 C 1674.012 44.955, 1644.716 44.161, 1624.023 52.569 C 1617.738 55.123, 1615.640 56.250, 1608.861 60.719 L 1605.222 63.118 1600.361 60.128 C 1584.331 50.268, 1561.460 45.296, 1540.626 47.143 C 1530.179 48.070, 1523.160 49.961, 1513.298 54.506 L 1506.096 57.825 1505.556 53.663 C 1505.259 51.373, 1504.900 48.150, 1504.758 46.500 L 1504.500 43.500 1494 43.779 C 1488.225 43.932, 1471.575 44.520, 1457 45.085 C 1442.425 45.650, 1420.645 46.200, 1408.600 46.306 L 1386.700 46.500 1385.531 43.060 C 1384.888 41.169, 1383.943 39.529, 1383.431 39.417 C 1382.919 39.306, 1379.125 40.242, 1375 41.498 M 458.750 44.583 C 458.337 44.996, 458 57.277, 458 71.875 L 458 98.416 452.830 90.015 C 441.265 71.223, 420.983 55.966, 399.415 49.834 C 388.303 46.675, 367.190 46.686, 355.500 49.858 C 333.597 55.800, 311.203 72.544, 300.807 90.750 C 299.158 93.637, 297.469 96.210, 297.053 96.467 C 296.637 96.724, 295.729 95.037, 295.036 92.717 C 290.647 78.041, 279.489 65.088, 264 56.689 C 241.712 44.604, 205.149 43.801, 171.750 54.664 C 170.293 55.138, 170 54.604, 170 51.472 L 170 47.711 125.750 48.367 C 101.412 48.727, 73.962 49.304, 64.750 49.650 L 48 50.277 48 135.639 L 48 221 79.505 221 L 111.010 221 110.522 211.250 C 110.253 205.888, 109.802 194.246, 109.519 185.380 L 109.004 169.261 112.752 168.642 C 114.813 168.301, 125.838 168.017, 137.250 168.011 L 158 168 158 164.967 C 158 163.298, 157.084 150.622, 155.964 136.798 C 154.316 116.449, 154.173 111.507, 155.214 110.847 C 157.402 109.458, 161.749 109.904, 162.393 111.582 C 162.727 112.452, 163 134.889, 163 161.442 C 163 187.995, 163.286 211.809, 163.636 214.360 L 164.272 219 195.136 219 L 226 219 226.070 213.250 C 226.186 203.744, 226.666 203.416, 232.891 208.590 C 248.395 221.474, 266.778 228, 287.565 228 L 298 228 298 200.372 L 298 172.743 303.007 180.413 C 314.997 198.780, 334.503 212.976, 355.897 218.904 C 393.933 229.445, 435.927 210.359, 455.804 173.500 L 458.500 168.500 458.767 195.382 L 459.033 222.263 480.767 221.616 C 492.720 221.259, 506.641 220.698, 511.703 220.369 L 520.905 219.769 520.290 190.725 C 519.918 173.170, 520.038 161.905, 520.593 162.248 C 521.098 162.561, 531.184 175.897, 543.006 191.885 L 564.500 220.955 592.086 220.977 L 619.673 221 620.324 166.346 C 620.682 136.286, 621.200 111.466, 621.476 111.191 C 621.751 110.916, 629.857 110.474, 639.488 110.209 L 657 109.727 657 152.205 C 657 175.569, 657.298 200.897, 657.662 208.490 L 658.324 222.297 674.912 221.643 C 684.035 221.284, 697.983 220.696, 705.907 220.336 L 720.313 219.682 719.726 164.283 C 719.279 122.133, 719.421 108.794, 720.319 108.506 C 720.969 108.299, 729.773 107.963, 739.885 107.760 L 758.270 107.392 757.531 164.326 L 756.792 221.261 805.146 220.627 C 831.741 220.278, 886.688 219.712, 927.250 219.368 L 1001 218.742 1001 211.371 C 1001 207.317, 1001.372 204, 1001.826 204 C 1002.280 204, 1003.690 205.105, 1004.959 206.456 C 1008.169 209.873, 1019.873 217.597, 1026.212 220.483 C 1037.490 225.616, 1048.401 228, 1060.612 228 L 1072 228 1072 197.138 L 1072 166.275 1063.308 165.570 C 1058.527 165.182, 1053.787 164.421, 1052.775 163.879 C 1051.107 162.987, 1051.415 162.358, 1056.040 157.197 C 1061.986 150.563, 1068.267 138.266, 1070.444 129 C 1072.622 119.725, 1072.438 105.032, 1070.025 95.596 C 1067.120 84.241, 1062.710 76.619, 1054.043 67.982 C 1038.611 52.601, 1017.603 46.084, 987.500 47.340 C 970.871 48.034, 957.742 50.383, 947.942 54.418 C 944.399 55.877, 941.050 57.167, 940.500 57.285 C 939.950 57.403, 939.275 54.725, 939 51.332 C 938.725 47.940, 938.275 44.940, 938 44.666 C 937.725 44.392, 921.300 44.793, 901.500 45.559 C 881.700 46.324, 841.763 47.260, 812.750 47.638 C 762.351 48.295, 760 48.246, 760 46.525 C 760 44.818, 758.621 44.759, 733.750 45.406 C 643.913 47.744, 622.681 47.946, 621.580 46.471 C 620.649 45.225, 616.499 45.173, 591.500 46.097 C 575.550 46.686, 561.938 47.341, 561.250 47.553 C 560.290 47.848, 560 54.299, 560 75.387 C 560 90.484, 559.727 103.549, 559.393 104.419 C 558.776 106.026, 553.865 99.975, 525.599 62.785 L 513.698 47.127 507.599 46.592 C 504.245 46.298, 494.300 45.806, 485.500 45.499 C 476.700 45.193, 467.250 44.692, 464.500 44.387 C 461.750 44.082, 459.163 44.170, 458.750 44.583 M 1393.750 69.737 C 1396.638 69.939, 1401.362 69.939, 1404.250 69.737 C 1407.138 69.535, 1404.775 69.370, 1399 69.370 C 1393.225 69.370, 1390.862 69.535, 1393.750 69.737 M 1191.750 70.737 C 1194.638 70.939, 1199.362 70.939, 1202.250 70.737 C 1205.138 70.535, 1202.775 70.370, 1197 70.370 C 1191.225 70.370, 1188.862 70.535, 1191.750 70.737 M 1383.760 85.500 C 1384.220 103.569, 1384.769 106.023, 1384.766 90 C 1384.764 83.125, 1384.457 76.150, 1384.083 74.500 C 1383.709 72.850, 1383.564 77.800, 1383.760 85.500 M 1713.651 76.266 C 1712.174 77.346, 1711.968 78.931, 1712.252 87.016 L 1712.585 96.500 1712.792 86.903 C 1712.984 78.041, 1713.172 77.222, 1715.250 76.220 C 1716.487 75.624, 1717.024 75.105, 1716.441 75.068 C 1715.859 75.030, 1714.603 75.570, 1713.651 76.266 M 807.378 102 C 807.378 108.325, 807.541 110.912, 807.739 107.750 C 807.937 104.587, 807.937 99.412, 807.739 96.250 C 807.541 93.087, 807.378 95.675, 807.378 102 M 899.750 95.743 C 903.737 95.932, 910.263 95.932, 914.250 95.743 C 918.237 95.553, 914.975 95.397, 907 95.397 C 899.025 95.397, 895.763 95.553, 899.750 95.743 M 174.378 112 C 174.378 118.325, 174.541 120.912, 174.739 117.750 C 174.937 114.587, 174.937 109.412, 174.739 106.250 C 174.541 103.087, 174.378 105.675, 174.378 112 M 1430.250 105.742 C 1433.963 105.934, 1440.037 105.934, 1443.750 105.742 C 1447.463 105.549, 1444.425 105.392, 1437 105.392 C 1429.575 105.392, 1426.537 105.549, 1430.250 105.742 M 932.400 127.250 C 933.202 151.329, 933.724 156, 935.614 156 C 936.758 156, 937 151.719, 937 131.500 L 937 107 934.363 107 L 931.726 107 932.400 127.250 M 1261.374 128.500 C 1261.376 134.550, 1261.541 136.896, 1261.740 133.713 C 1261.939 130.531, 1261.937 125.581, 1261.736 122.713 C 1261.535 119.846, 1261.372 122.450, 1261.374 128.500 M 1713.453 156.500 C 1713.453 176.850, 1713.586 185.033, 1713.749 174.685 C 1713.912 164.336, 1713.911 147.686, 1713.748 137.685 C 1713.585 127.683, 1713.452 136.150, 1713.453 156.500 M 769.370 136 C 769.370 141.775, 769.535 144.137, 769.737 141.250 C 769.939 138.363, 769.939 133.637, 769.737 130.750 C 769.535 127.862, 769.370 130.225, 769.370 136 M 288 148.824 C 288 149.278, 285.525 152.507, 282.500 156 C 279.475 159.493, 277 162.692, 277 163.108 C 277 164.184, 279.508 164.778, 287.401 165.572 L 294.303 166.265 293.628 163.883 C 293.257 162.572, 292.177 158.464, 291.227 154.754 C 290.277 151.043, 289.163 148.006, 288.750 148.004 C 288.337 148.002, 288 148.371, 288 148.824 M 470.374 162.500 C 470.376 168.550, 470.541 170.896, 470.740 167.713 C 470.939 164.531, 470.937 159.581, 470.736 156.713 C 470.535 153.846, 470.372 156.450, 470.374 162.500 M 608.400 170.500 C 608.401 178.750, 608.556 181.992, 608.744 177.704 C 608.932 173.417, 608.931 166.667, 608.742 162.704 C 608.552 158.742, 608.399 162.250, 608.400 170.500 M 932.392 181 C 932.392 188.425, 932.549 191.463, 932.742 187.750 C 932.934 184.037, 932.934 177.963, 932.742 174.250 C 932.549 170.537, 932.392 173.575, 932.392 181 M 1828.999 200.701 C 1828.725 217.312, 1828.844 230.557, 1829.265 230.136 C 1829.686 229.714, 1829.911 216.124, 1829.764 199.935 L 1829.498 170.500 1828.999 200.701 M 669.389 188.500 C 669.390 195.650, 669.550 198.444, 669.742 194.708 C 669.935 190.973, 669.934 185.123, 669.739 181.708 C 669.545 178.294, 669.387 181.350, 669.389 188.500 M 285.419 197 C 285.419 207.725, 285.566 212.113, 285.746 206.750 C 285.925 201.387, 285.925 192.613, 285.746 187.250 C 285.566 181.887, 285.419 186.275, 285.419 197 M 508.208 197.677 C 508.029 206.423, 507.754 207.918, 506.250 208.311 C 504.610 208.739, 504.612 208.775, 506.281 208.884 C 508.812 209.049, 509.122 207.546, 508.747 196.925 L 508.415 187.500 508.208 197.677 M 1713.998 211.250 C 1713.999 211.662, 1722.662 211.912, 1733.250 211.804 C 1752.621 211.607, 1750.349 211.242, 1726.748 210.760 C 1719.735 210.617, 1713.997 210.838, 1713.998 211.250 M 1192.784 213.738 C 1195.689 213.941, 1200.189 213.939, 1202.784 213.734 C 1205.378 213.528, 1203 213.363, 1197.500 213.365 C 1192 213.368, 1189.878 213.536, 1192.784 213.738" stroke="none" fill="#2868b4" fill-rule="evenodd"/><path d="M 442.244 40.766 C 442.385 47.396, 442.207 53.116, 441.848 53.479 C 441.489 53.841, 439.014 52.583, 436.348 50.682 C 433.682 48.782, 427.900 45.430, 423.500 43.233 C 384.425 23.719, 339.123 30.325, 306.507 60.293 L 299.513 66.718 293.097 59.788 C 282.127 47.939, 268.177 40, 250.119 35.331 C 234.677 31.338, 206.203 31.053, 187.750 34.706 C 185.623 35.127, 185 34.869, 185 33.565 C 185 32.022, 183.371 31.930, 165.750 32.477 C 144.717 33.129, 51.903 34.993, 40.250 34.997 L 33 35 33 135.500 L 33 236 79.635 236 L 126.270 236 125.542 210.144 L 124.814 184.287 128.032 183.644 C 129.802 183.290, 134.950 183, 139.472 183 L 147.694 183 148.343 194.250 C 148.699 200.438, 148.993 211.921, 148.995 219.768 L 149 234.036 196.250 233.993 L 243.500 233.950 253.500 237.363 C 266.031 241.640, 274.029 242.792, 295.750 243.448 L 313 243.969 313 229.484 C 313 221.518, 313.250 215, 313.555 215 C 313.860 215, 316.673 216.738, 319.805 218.863 C 355.914 243.357, 400.984 242.875, 437 217.609 L 443.500 213.049 443.780 225.527 L 444.060 238.004 458.280 237.470 C 513.769 235.386, 525.009 235, 530.148 235 L 535.942 235 536.221 221.813 L 536.500 208.627 546.789 222.313 L 557.079 236 596.039 236 L 635 236 635.127 202.750 C 635.196 184.463, 635.534 159.600, 635.877 147.500 L 636.500 125.500 639.128 125.195 L 641.755 124.891 642.163 180.898 C 642.388 211.702, 642.874 237.208, 643.244 237.578 C 643.866 238.199, 711.298 235.654, 727.750 234.387 L 735 233.829 735 178.415 L 735 123 738.858 123 L 742.717 123 742.213 179.662 L 741.710 236.325 808.605 235.531 C 845.397 235.095, 907.450 234.459, 946.500 234.119 L 1017.500 233.500 1023.500 235.891 C 1038.588 241.905, 1040.799 242.229, 1074.750 243.392 L 1087 243.811 1087 197.406 L 1087 151 1083.667 151 C 1081.833 151, 1080.092 150.759, 1079.797 150.464 C 1079.503 150.169, 1080.321 147.305, 1081.616 144.098 C 1085.320 134.929, 1087 124.942, 1087 112.095 C 1087 97.821, 1084.836 88.320, 1078.779 76 C 1075.353 69.030, 1072.881 65.781, 1065.050 57.950 C 1057.278 50.179, 1053.824 47.543, 1046.500 43.795 C 1041.550 41.262, 1034.575 38.232, 1031 37.063 C 1014.601 31.696, 990.379 30.537, 967.160 34.007 C 959.823 35.103, 953.664 36, 953.473 36 C 953.283 36, 952.986 34.538, 952.813 32.750 L 952.500 29.500 935 29.653 C 925.375 29.737, 904 30.304, 887.500 30.912 C 871 31.521, 838.713 32.312, 815.750 32.671 C 775.768 33.297, 774 33.247, 774 31.500 C 774 29.751, 772.281 29.708, 732.250 30.462 C 709.288 30.895, 678.462 31.530, 663.749 31.874 C 642.680 32.367, 636.998 32.234, 636.999 31.250 C 637 30.383, 635.087 30.002, 630.750 30.005 C 621.434 30.012, 567.032 31.864, 555.250 32.574 L 545 33.192 545 47.096 C 545 54.743, 544.643 61, 544.207 61 C 543.603 61, 525.047 37.534, 521.941 32.845 C 521.634 32.380, 510.384 31.562, 496.941 31.026 C 483.499 30.489, 465.635 29.749, 457.244 29.381 L 441.987 28.711 442.244 40.766 M 449.706 38.017 C 449.387 39.234, 449.397 47.486, 449.727 56.353 L 450.326 72.476 443.413 66.122 C 415.749 40.692, 381.613 32.859, 347.500 44.111 C 331.644 49.342, 314.796 60.494, 304.001 72.905 L 298.793 78.894 293.085 71.197 C 281.786 55.960, 269.118 47.828, 247.242 41.770 C 233.476 37.958, 191.413 39.067, 179.729 43.551 C 178.642 43.968, 178.058 43.484, 177.830 41.978 C 177.505 39.838, 177.226 39.805, 160.500 39.909 C 132.555 40.082, 42.597 42.042, 41.250 42.506 C 40.262 42.847, 40 62.440, 40 135.969 L 40 229 79.525 229 L 119.051 229 118.367 203 C 117.991 188.700, 117.867 176.975, 118.092 176.944 C 118.316 176.914, 126.640 176.642, 136.588 176.341 L 154.677 175.793 155.338 194.057 C 155.702 204.102, 156 215.623, 156 219.660 L 156 227 195.500 227 L 235 227 235 224 C 235 222.350, 235.174 221, 235.387 221 C 235.600 221, 239.538 222.985, 244.137 225.410 C 248.737 227.836, 256.325 231.058, 261 232.570 C 268.672 235.052, 271.277 235.364, 287.750 235.770 L 306 236.219 306 216.957 L 306 197.696 311.750 203.158 C 322.407 213.282, 334.774 220.547, 349.500 225.336 C 360.553 228.930, 368.641 230.004, 381.520 229.589 C 404.480 228.848, 425.594 219.537, 444.573 201.782 L 451 195.771 451 212.826 C 451 222.207, 451.337 230.055, 451.750 230.265 C 452.509 230.654, 485.990 229.546, 513.500 228.222 L 528.500 227.500 529 207.337 L 529.500 187.173 545 208.054 L 560.500 228.936 594.096 228.968 L 627.692 229 628.416 174.266 C 628.949 133.989, 629.452 119.333, 630.320 118.781 C 630.969 118.368, 635.369 118.024, 640.097 118.015 L 648.695 118 649.247 173.629 C 649.694 218.786, 650.053 229.423, 651.149 230.138 C 651.892 230.622, 656.550 230.788, 661.500 230.507 C 666.450 230.225, 682.650 229.517, 697.500 228.933 C 712.350 228.348, 725.288 227.644, 726.250 227.367 C 727.890 226.897, 728 223.368, 728 171.433 L 728 116 739.004 116 L 750.008 116 749.341 171.940 L 748.674 227.880 751.476 228.583 C 753.017 228.970, 775.028 228.995, 800.389 228.639 C 825.750 228.283, 883.063 227.703, 927.750 227.351 L 1009 226.711 1009 223.287 L 1009 219.864 1011.750 221.801 C 1015.862 224.699, 1022.216 227.760, 1029.758 230.479 C 1042.167 234.953, 1048.631 235.970, 1064.750 235.985 L 1080 236 1080 197 L 1080 158 1074.167 158 C 1070.958 158, 1068.065 157.732, 1067.738 157.405 C 1067.411 157.077, 1068.689 153.996, 1070.579 150.558 C 1077.154 138.596, 1079.213 130.923, 1079.744 116.408 C 1080.305 101.059, 1078.500 91.926, 1072.380 79.155 C 1065.660 65.130, 1048.272 50.485, 1031.987 45.135 C 1010.062 37.931, 982.588 37.215, 956.682 43.171 C 951.833 44.286, 947.633 44.966, 947.348 44.682 C 947.064 44.398, 946.580 42.287, 946.272 39.991 L 945.712 35.818 925.106 36.470 C 913.773 36.828, 893.475 37.545, 880 38.063 C 866.525 38.581, 835.587 39.302, 811.250 39.665 L 767 40.325 767 38.101 C 767 36.065, 766.642 35.924, 762.750 36.431 C 760.413 36.735, 733.075 37.434, 702 37.984 C 670.925 38.534, 642.013 39.244, 637.750 39.561 C 630.863 40.073, 630 39.946, 630 38.417 C 630 36.859, 629.019 36.756, 619.667 37.328 C 613.984 37.676, 598.347 38.215, 584.917 38.527 C 571.488 38.838, 558.587 39.324, 556.250 39.608 L 552 40.123 552 60.395 C 552 71.544, 551.724 80.942, 551.388 81.279 C 550.652 82.015, 544.377 74.387, 529.126 54.219 L 517.752 39.178 511.126 38.614 C 507.482 38.304, 496.625 37.805, 487 37.507 C 477.375 37.209, 465.176 36.703, 459.892 36.384 C 450.587 35.823, 450.266 35.874, 449.706 38.017 M 1378.917 40.411 C 1378.688 40.638, 1364.934 44.913, 1348.353 49.913 L 1318.206 59.003 1291.353 52.598 C 1258.413 44.741, 1253.075 43.566, 1252.671 44.089 C 1252.497 44.315, 1251.360 48.303, 1250.144 52.950 C 1248.928 57.598, 1247.784 61.550, 1247.602 61.732 C 1247.419 61.914, 1243.947 60.275, 1239.885 58.090 C 1220.256 47.532, 1191.222 44.539, 1168.500 50.734 C 1117.926 64.521, 1089.348 124.799, 1109.085 176.054 C 1119.444 202.955, 1143.266 224.378, 1171.500 232.183 C 1182.459 235.213, 1208.306 235.458, 1217.500 232.620 C 1231.494 228.300, 1244.766 220.708, 1254.799 211.283 L 1260.099 206.305 1264.022 210.762 C 1273.322 221.327, 1288.987 231.026, 1302.220 234.412 C 1322.557 239.614, 1345.518 235.996, 1361.368 225.091 C 1363.839 223.391, 1366.117 222, 1366.430 222 C 1366.744 222, 1367 225.081, 1367 228.846 L 1367 235.691 1381.750 235.301 C 1389.862 235.086, 1421.884 234.279, 1452.909 233.508 C 1489.160 232.606, 1509.545 231.736, 1509.956 231.071 C 1510.370 230.402, 1513.575 230.996, 1519.047 232.757 C 1526.832 235.261, 1528.803 235.477, 1544 235.488 C 1557.085 235.497, 1561.949 235.108, 1567.500 233.607 C 1574.740 231.649, 1585.173 227.085, 1593 222.451 L 1597.500 219.786 1604.570 223.876 C 1608.459 226.125, 1616.559 229.605, 1622.570 231.608 C 1632.340 234.864, 1634.921 235.304, 1646.890 235.760 C 1664.204 236.420, 1673.641 234.771, 1688.250 228.533 C 1689.660 227.931, 1690 228.292, 1690 230.393 L 1690 233 1732 233 C 1762.039 233, 1774 232.685, 1774 231.893 C 1774 231.284, 1774.563 231.032, 1775.250 231.333 C 1796.188 240.487, 1803.071 241.984, 1824.250 241.993 L 1841 242 1841 200 L 1841 158 1836.393 158 C 1833.083 158, 1831.940 157.648, 1832.333 156.750 C 1839.664 139.980, 1841.248 133.250, 1841.216 119 C 1841.175 101.018, 1835.181 84.943, 1823.944 72.680 C 1813.528 61.312, 1802.881 55.125, 1785.567 50.377 C 1778.374 48.404, 1773.193 47.774, 1760.500 47.330 C 1740.571 46.632, 1725.056 48.554, 1710.387 53.536 L 1700.274 56.971 1694.175 54.493 C 1680.082 48.767, 1673.600 47.572, 1656.500 47.548 C 1643.745 47.530, 1639.182 47.908, 1634 49.410 C 1625.802 51.786, 1613.638 57.276, 1609.388 60.517 C 1607.598 61.883, 1605.782 63, 1605.353 63 C 1604.924 63, 1600.057 60.751, 1594.536 58.001 C 1580.706 51.113, 1569.304 48.041, 1554.823 47.300 C 1537.413 46.409, 1521.346 49.685, 1509.369 56.570 L 1505.239 58.944 1504.619 55.847 C 1504.279 54.144, 1504 50.727, 1504 48.254 L 1504 43.759 1490.750 44.383 C 1483.463 44.726, 1461.525 45.451, 1442 45.993 C 1422.475 46.536, 1401.909 47.222, 1396.299 47.518 L 1386.097 48.057 1384.890 44.028 C 1383.962 40.929, 1383.182 40, 1381.508 40 C 1380.312 40, 1379.146 40.185, 1378.917 40.411 M 1369.500 48.668 C 1365.100 50.024, 1356.550 52.662, 1350.500 54.532 C 1344.450 56.402, 1334.822 59.362, 1329.104 61.110 L 1318.708 64.289 1305.104 61.001 C 1297.622 59.193, 1285.650 56.247, 1278.500 54.455 C 1271.350 52.662, 1263.392 50.880, 1260.816 50.494 L 1256.133 49.793 1255.118 53.646 C 1254.560 55.766, 1253.353 60.526, 1252.437 64.224 C 1250.951 70.215, 1250.571 70.841, 1248.941 69.968 C 1247.935 69.430, 1246.857 68.578, 1246.547 68.076 C 1245.246 65.970, 1231.931 59.464, 1223.540 56.833 C 1204.026 50.714, 1184.604 50.773, 1166 57.008 C 1134.202 67.664, 1112.760 96.074, 1108.081 133.750 C 1105.586 153.838, 1113.209 179.773, 1126.500 196.416 C 1137.833 210.607, 1153.763 221.538, 1170.500 226.608 C 1177.840 228.832, 1181.991 229.412, 1193 229.755 C 1205.297 230.138, 1207.337 229.940, 1215.892 227.533 C 1232.866 222.756, 1246.719 214.117, 1256.545 202.181 C 1258.995 199.205, 1261 197.231, 1261 197.793 C 1261 199.187, 1269.709 209.792, 1273.895 213.496 C 1293.861 231.163, 1322.709 236.478, 1346.851 226.937 C 1352.108 224.860, 1357.534 221.643, 1362.788 217.489 L 1370.754 211.189 1371.377 215.734 C 1371.720 218.234, 1372 222.466, 1372 225.140 L 1372 230 1390.250 229.963 C 1413.427 229.916, 1477.825 228.309, 1493.250 227.393 C 1504.600 226.719, 1505 226.618, 1505 224.422 L 1505 222.149 1511.033 224.513 C 1525.139 230.041, 1527.582 230.464, 1545.500 230.483 C 1562.177 230.500, 1562.669 230.439, 1571.413 227.267 C 1578.988 224.520, 1588.262 219.646, 1595.239 214.745 C 1596.652 213.753, 1597.497 213.860, 1599.739 215.314 C 1605.609 219.122, 1618.874 225.190, 1627 227.785 C 1634.827 230.285, 1636.806 230.500, 1652 230.500 C 1668.010 230.500, 1668.783 230.403, 1678.033 227.240 C 1683.276 225.447, 1689.238 222.843, 1691.283 221.454 L 1695 218.928 1695 223.357 C 1695 226.473, 1695.469 227.966, 1696.582 228.393 C 1698.647 229.185, 1765.353 229.185, 1767.418 228.393 C 1768.439 228.001, 1769 226.559, 1769 224.325 L 1769 220.864 1771.750 222.803 C 1778.014 227.220, 1789.096 232.130, 1798.216 234.530 C 1806.051 236.591, 1810.600 237.126, 1821.716 237.293 L 1835.500 237.500 1835.500 200.500 L 1835.500 163.500 1829.250 163.202 C 1825.813 163.039, 1823 162.694, 1823 162.437 C 1823 162.180, 1824.554 159.614, 1826.453 156.735 C 1828.352 153.856, 1831.357 147.225, 1833.132 142 C 1836.117 133.207, 1836.357 131.532, 1836.347 119.500 C 1836.337 108.655, 1835.966 105.439, 1834.107 100.101 C 1825.844 76.376, 1809.977 62.054, 1784 54.874 C 1776.285 52.742, 1773.514 52.526, 1754 52.540 C 1733.686 52.554, 1731.921 52.709, 1722 55.340 C 1716.225 56.872, 1709.100 59.214, 1706.167 60.545 C 1701.110 62.840, 1700.674 62.883, 1697.742 61.367 C 1692.855 58.839, 1679.089 54.301, 1672.249 52.963 C 1668.223 52.175, 1661.280 51.928, 1652.749 52.270 C 1634.481 53.002, 1623.699 56.633, 1609.707 66.763 C 1605.376 69.899, 1604.750 70.088, 1603.207 68.728 C 1599.778 65.706, 1584.280 58.101, 1576 55.378 C 1568.070 52.770, 1566.359 52.579, 1550.500 52.541 C 1535.134 52.504, 1532.827 52.730, 1526.500 54.889 C 1518.238 57.709, 1511.126 61.154, 1505.240 65.190 C 1500.276 68.593, 1500.319 68.652, 1499.723 57.732 C 1499.489 53.460, 1499.119 49.789, 1498.899 49.574 C 1498.680 49.360, 1479.600 49.783, 1456.500 50.514 C 1433.400 51.246, 1407.319 51.992, 1398.543 52.172 L 1382.586 52.500 1381.648 49.250 C 1380.539 45.406, 1380.150 45.387, 1369.500 48.668 M 1381.365 131.500 C 1381.368 137, 1381.536 139.122, 1381.738 136.216 C 1381.941 133.311, 1381.939 128.811, 1381.734 126.216 C 1381.528 123.622, 1381.363 126, 1381.365 131.500" stroke="none" fill="#b63232" fill-rule="evenodd"/><path d="M 436 31.348 C 436 37.256, 435.603 41, 434.978 41 C 434.416 41, 430.377 39.201, 426.002 37.001 C 387.010 17.396, 340.279 23.121, 306.341 51.661 C 303.503 54.048, 300.888 56, 300.530 56 C 300.172 56, 295.759 52.619, 290.723 48.487 C 269.721 31.253, 242.385 23.486, 210 25.549 C 203.125 25.987, 191.875 26.221, 185 26.069 C 169.453 25.725, 36.060 27.919, 30.250 28.614 L 26 29.123 26 136.061 L 26 243 79.603 243 L 133.206 243 132.470 216.440 L 131.735 189.880 136.617 190.190 L 141.500 190.500 141.767 215.750 L 142.034 241 193.395 241 C 238.818 241, 245.203 241.190, 248.628 242.644 C 250.758 243.549, 256.550 245.365, 261.500 246.679 C 269.361 248.767, 273.569 249.146, 294.750 249.672 L 319 250.275 319 238.554 C 319 232.108, 319.337 227.005, 319.750 227.214 C 341.870 238.444, 350.060 241.229, 366.644 243.156 C 385.864 245.390, 406.438 241.426, 426.131 231.695 L 436.761 226.442 437.381 232.367 C 437.721 235.627, 438 239.836, 438 241.722 L 438 245.150 446.750 244.576 C 451.563 244.259, 471.025 243.545, 490 242.988 C 508.975 242.431, 528.663 241.714, 533.750 241.394 L 543 240.813 543 234.758 L 543 228.702 548.034 235.351 L 553.067 242 594.534 242 C 632.455 242, 636 242.142, 636 243.655 C 636 245.152, 637.413 245.245, 650.750 244.622 C 701.147 242.269, 718.653 241.853, 754.500 242.157 C 801.043 242.552, 794.974 242.576, 921.007 241.516 C 1010.972 240.760, 1018.762 240.826, 1021.731 242.361 C 1023.501 243.276, 1029.123 245.201, 1034.224 246.638 C 1042.807 249.056, 1045.385 249.287, 1068.750 249.736 L 1094 250.221 1094 197.110 L 1094 144 1091.638 144 L 1089.275 144 1091.287 136.250 C 1092.887 130.086, 1093.304 125.226, 1093.327 112.500 C 1093.354 97.933, 1093.115 95.711, 1090.666 87.693 C 1084.502 67.514, 1073.497 52.746, 1056.372 41.675 C 1041.018 31.748, 1024.838 26.896, 1002.500 25.518 C 992.580 24.907, 972.506 25.971, 962.750 27.626 C 959.080 28.248, 959 28.195, 959 25.131 C 959 22.378, 958.668 22.002, 956.250 22.017 C 954.737 22.026, 926.275 22.920, 893 24.004 C 859.725 25.088, 820.688 25.981, 806.250 25.988 C 782.501 25.999, 780 25.843, 780 24.347 C 780 22.826, 776.797 22.751, 739.750 23.398 C 717.612 23.784, 687.125 24.526, 672 25.046 C 648.010 25.870, 644.358 25.800, 643.390 24.495 C 642.581 23.406, 640.272 22.996, 634.890 22.984 C 624.198 22.960, 545.090 26.003, 541.291 26.584 L 538.083 27.075 537.791 34.659 L 537.500 42.242 531.219 34.133 C 527.605 29.465, 523.997 25.822, 522.719 25.550 C 521.499 25.290, 507.450 24.602, 491.500 24.021 C 475.550 23.440, 456.538 22.679, 449.250 22.330 L 436 21.696 436 31.348 M 447.279 28.744 L 442.059 29.102 441.779 41.556 L 441.500 54.009 436.500 50.418 C 418.235 37.301, 390.186 29.645, 369.026 32.001 C 363.786 32.584, 357.925 33.476, 356 33.983 C 354.075 34.491, 351.375 35.108, 350 35.354 C 346.604 35.964, 338.311 39.310, 330.752 43.122 C 321.893 47.588, 314 53.133, 306.457 60.189 L 299.938 66.287 293.009 59.150 C 282.139 47.951, 267.444 39.475, 252.059 35.530 C 242.914 33.186, 227.775 31.070, 223.500 31.539 C 221.300 31.781, 214.100 32.195, 207.500 32.460 C 200.900 32.725, 193.346 33.336, 190.714 33.818 C 186.941 34.508, 185.760 34.393, 185.134 33.274 C 184.451 32.055, 177.004 32.004, 132.420 32.914 C 48.070 34.635, 33.693 34.973, 33.443 35.243 C 32.967 35.760, 32.507 134.922, 32.750 184.750 L 33 236 79.981 236 L 126.962 236 126.514 231.750 C 126.268 229.412, 125.823 217.713, 125.524 205.750 L 124.981 184 136.351 184 L 147.722 184 148.210 208.516 C 148.479 222, 148.885 233.218, 149.113 233.446 C 149.340 233.674, 171.278 234.112, 197.863 234.420 L 246.200 234.979 253.350 237.560 C 266.193 242.196, 272.445 243.140, 293.250 243.586 L 313 244.009 313 229.406 L 313 214.804 316.250 216.934 C 331.534 226.953, 343.630 232.254, 357.987 235.225 C 365.694 236.819, 370.063 237.100, 381 236.705 C 401.715 235.957, 416.795 231.174, 433.840 219.945 C 438.803 216.675, 443.120 214, 443.432 214 C 443.744 214, 444 219.655, 444 226.567 C 444 238.071, 444.148 239.090, 445.750 238.606 C 446.712 238.315, 461.225 237.617, 478 237.055 C 494.775 236.494, 514.688 235.743, 522.250 235.389 L 536 234.744 536 222.372 C 536 215.567, 536.337 210.011, 536.750 210.025 C 537.163 210.039, 541.775 215.884, 547 223.014 L 556.500 235.977 595.750 235.988 L 635 236 635.135 217.250 C 635.209 206.938, 635.329 196.025, 635.402 193 C 635.476 189.975, 635.640 173.662, 635.768 156.750 L 636 126 639 126 L 642 126 642 182 L 642 238 648.250 238.033 C 656.778 238.078, 729.946 234.923, 732.750 234.390 L 735 233.962 735 178.481 L 735 123 738.532 123 L 742.064 123 741.782 179.658 L 741.500 236.316 818 235.421 C 860.075 234.929, 922.732 234.643, 957.238 234.787 L 1019.977 235.048 1030.303 238.503 C 1041.845 242.365, 1055.042 243.977, 1075.250 243.991 L 1087 244 1087 197 L 1087 150 1083.393 150 C 1080.364 150, 1079.896 149.720, 1080.471 148.250 C 1093.713 114.419, 1088.335 80.573, 1066.132 58.006 C 1055.245 46.940, 1041.959 39.597, 1024.175 34.817 C 1009.347 30.831, 973.750 31.277, 955.250 35.681 C 953.220 36.164, 953 35.848, 953 32.453 L 953 28.689 927.250 29.356 C 913.087 29.722, 890.250 30.444, 876.500 30.960 C 862.750 31.475, 834.264 32.216, 813.198 32.607 L 774.896 33.316 774.305 31.058 C 773.714 28.800, 773.712 28.800, 757.607 29.388 C 748.748 29.711, 718.208 30.511, 689.740 31.165 C 643.794 32.220, 637.840 32.184, 636.740 30.841 C 635.637 29.496, 631.068 29.477, 595.500 30.668 C 573.500 31.404, 553.194 32.256, 550.375 32.560 L 545.251 33.113 544.531 47.085 L 543.811 61.058 536.655 51.726 C 532.720 46.593, 527.742 40.083, 525.592 37.259 C 520.959 31.171, 523.953 31.672, 482.255 30.020 C 467.270 29.427, 454.445 28.816, 453.755 28.663 C 453.065 28.510, 450.151 28.546, 447.279 28.744 M 1370.500 48.957 C 1367.200 49.949, 1356.850 53.117, 1347.500 55.996 C 1338.150 58.876, 1327.783 62.021, 1324.462 62.985 L 1318.424 64.738 1288.022 57.358 C 1271.302 53.300, 1257.323 50.321, 1256.959 50.739 C 1256.362 51.426, 1255.316 55.027, 1252.057 67.628 L 1250.989 71.756 1242.883 66.423 C 1220.866 51.938, 1188.255 48.935, 1162.176 58.993 C 1123.078 74.070, 1100.145 121.057, 1111.058 163.726 C 1114.971 179.025, 1125.854 197.356, 1136.823 207.123 C 1162.465 229.955, 1198.975 236.010, 1228.856 222.386 C 1238.057 218.191, 1248.399 210.583, 1255.363 202.888 L 1260.716 196.973 1263.358 200.964 C 1269.602 210.400, 1281.798 220.282, 1293.689 225.541 C 1305.607 230.812, 1323.165 232.410, 1337.054 229.489 C 1346.080 227.590, 1358.583 221.148, 1365.486 214.839 C 1368.398 212.177, 1371.055 210, 1371.390 210 C 1371.726 210, 1372 214.248, 1372 219.441 C 1372 224.634, 1372.338 229.087, 1372.750 229.339 C 1373.374 229.719, 1472.359 227.676, 1497 226.774 C 1503.995 226.518, 1504.522 226.344, 1504.830 224.174 C 1505.073 222.457, 1505.597 222.020, 1506.830 222.508 C 1538.440 235.005, 1566.253 233.287, 1590.217 217.356 L 1597.085 212.790 1600.860 215.289 C 1627.328 232.804, 1661.925 235.607, 1688.250 222.369 L 1695 218.975 1695.015 222.237 C 1695.024 224.032, 1695.391 226.068, 1695.832 226.763 C 1696.459 227.750, 1704.485 227.968, 1732.567 227.763 L 1768.500 227.500 1768.813 224.250 C 1769.183 220.420, 1769.322 220.381, 1773.082 223.059 C 1777.986 226.551, 1792.141 232.690, 1799.500 234.518 C 1804.356 235.724, 1810.940 236.293, 1821 236.378 L 1835.500 236.500 1835.762 200.250 L 1836.025 164 1829.012 164 C 1825.156 164, 1822 163.702, 1822 163.338 C 1822 162.973, 1823.324 160.611, 1824.942 158.088 C 1838.106 137.562, 1839.674 109.439, 1828.811 88.686 C 1823.816 79.143, 1811.448 67.240, 1801.159 62.074 C 1785.632 54.278, 1764.631 51.013, 1742.853 53.009 C 1727.303 54.435, 1719.182 56.134, 1708.815 60.131 C 1702.065 62.735, 1700.164 63.106, 1698.058 62.231 C 1696.651 61.646, 1692.588 59.947, 1689.029 58.455 C 1685.470 56.963, 1677.494 54.809, 1671.304 53.668 C 1661.077 51.783, 1659.066 51.704, 1649.275 52.802 C 1632.797 54.650, 1620.464 59.182, 1609.830 67.300 L 1605.319 70.743 1599.449 66.884 C 1585.221 57.528, 1567.338 52.423, 1549.500 52.625 C 1531.775 52.825, 1517.953 56.930, 1505.748 65.617 C 1503.134 67.478, 1500.836 69, 1500.641 69 C 1500.446 69, 1499.974 64.851, 1499.591 59.781 C 1499.208 54.710, 1498.682 50.348, 1498.421 50.087 C 1498.160 49.827, 1480.521 50.173, 1459.223 50.857 C 1437.925 51.541, 1411.905 52.371, 1401.401 52.701 L 1382.301 53.302 1381.203 50.151 C 1379.930 46.501, 1379.010 46.398, 1370.500 48.957 M 131.750 48.737 C 134.637 48.939, 139.363 48.939, 142.250 48.737 C 145.137 48.535, 142.775 48.370, 137 48.370 C 131.225 48.370, 128.863 48.535, 131.750 48.737 M 1359 58.585 C 1351.025 61.061, 1338.785 64.845, 1331.800 66.993 L 1319.099 70.898 1290.366 63.933 C 1274.562 60.102, 1261.325 57.312, 1260.949 57.734 C 1258.642 60.319, 1252.285 93.064, 1251.350 107.176 C 1250.998 112.498, 1250.433 117.300, 1250.095 117.846 C 1249.474 118.851, 1235.185 116.484, 1233.841 115.153 C 1233.479 114.794, 1237.641 107.553, 1243.091 99.063 C 1248.541 90.573, 1253 83.148, 1253 82.563 C 1252.999 81.022, 1243.792 73.331, 1237.183 69.351 C 1221.413 59.855, 1192.998 56.418, 1172.694 61.551 C 1163.533 63.867, 1151.445 70.307, 1143.696 77 C 1124.209 93.831, 1112.903 120.244, 1114.375 145.500 C 1115.133 158.514, 1117.104 166.388, 1122.377 177.466 C 1146.153 227.418, 1211.475 239.590, 1249 201.061 C 1252.575 197.390, 1256.625 192.512, 1258 190.220 C 1259.375 187.929, 1260.725 186.050, 1261 186.046 C 1261.275 186.042, 1263.210 188.962, 1265.299 192.535 C 1278.596 215.272, 1302.960 227.652, 1328.948 224.875 C 1347.548 222.888, 1364.521 211.759, 1374.203 195.200 L 1376.717 190.900 1377.446 207.200 C 1377.846 216.165, 1378.247 223.573, 1378.337 223.663 C 1378.571 223.898, 1459.102 222.111, 1480.750 221.390 L 1499 220.783 1499 216.392 C 1499 213.976, 1499.236 212, 1499.525 212 C 1499.814 212, 1503.171 213.572, 1506.987 215.493 C 1510.802 217.415, 1517.878 220.198, 1522.712 221.678 C 1530.494 224.061, 1533.160 224.373, 1546 224.404 C 1559.323 224.435, 1561.149 224.212, 1568.500 221.656 C 1578.174 218.293, 1585.884 214.128, 1592.267 208.818 L 1597.035 204.852 1600.073 207.408 C 1611.691 217.184, 1634.962 224.986, 1652.500 224.986 C 1667.852 224.986, 1684.745 219.657, 1695.556 211.405 C 1698.010 209.532, 1700.218 208, 1700.463 208 C 1700.708 208, 1701.042 211.038, 1701.204 214.750 L 1701.500 221.500 1732.250 221.764 L 1763 222.029 1763 214.969 L 1763 207.909 1769.250 213.016 C 1776.587 219.012, 1790.804 226.141, 1800 228.437 C 1803.575 229.330, 1811.787 230.340, 1818.250 230.683 L 1830 231.305 1830 200.653 L 1830 170 1824.250 169.994 C 1818.724 169.989, 1811 168.468, 1811 167.386 C 1811 167.099, 1813.065 164.331, 1815.588 161.233 C 1821.062 154.512, 1826.440 144.170, 1828.577 136.249 C 1829.516 132.771, 1830.148 126.155, 1830.177 119.500 C 1830.217 110.158, 1829.823 107.306, 1827.563 100.582 C 1818.642 74.041, 1796.277 59.957, 1760.500 58.348 C 1740.601 57.454, 1720.800 60.750, 1707.284 67.207 L 1701.067 70.177 1694.503 67.075 C 1681.304 60.839, 1671.860 58.671, 1657.500 58.581 C 1649.575 58.532, 1642.353 59.034, 1639 59.868 C 1630.580 61.961, 1618.146 68.118, 1611.668 73.400 L 1605.836 78.156 1599.168 73.706 C 1587.870 66.165, 1579.682 62.795, 1564.570 59.466 C 1553.027 56.923, 1538.062 57.847, 1526.559 61.812 C 1515.687 65.559, 1508.188 70.018, 1500.921 77.056 L 1495.184 82.612 1494.471 69.306 L 1493.759 56 1485.629 56.026 C 1481.158 56.040, 1457.700 56.704, 1433.500 57.503 C 1374.035 59.465, 1378.173 59.539, 1377.411 56.500 C 1377.053 55.075, 1376.077 54.018, 1375.142 54.041 C 1374.239 54.064, 1366.975 56.108, 1359 58.585 M 59.428 96 C 59.428 108.375, 59.571 113.438, 59.747 107.250 C 59.922 101.063, 59.922 90.938, 59.747 84.750 C 59.571 78.563, 59.428 83.625, 59.428 96 M 948.374 86.500 C 948.376 92.550, 948.541 94.896, 948.740 91.713 C 948.939 88.531, 948.937 83.581, 948.736 80.713 C 948.535 77.846, 948.372 80.450, 948.374 86.500 M 1319.651 88.780 C 1319.319 90.860, 1318.083 101.997, 1316.905 113.530 C 1315.086 131.339, 1314.927 136.007, 1315.846 144.500 C 1317.047 155.600, 1319.351 163.537, 1321.626 164.410 C 1326.294 166.201, 1330.236 141.464, 1328.199 123.172 C 1326.775 110.391, 1321.963 85, 1320.965 85 C 1320.575 85, 1319.984 86.701, 1319.651 88.780 M 1455.789 104.741 C 1459.248 104.937, 1464.648 104.936, 1467.789 104.738 C 1470.930 104.540, 1468.100 104.380, 1461.500 104.382 C 1454.900 104.384, 1452.330 104.546, 1455.789 104.741 M 1762 119.500 C 1762 124.300, 1762.354 126, 1763.354 126 C 1765.195 126, 1770 121.433, 1770 119.683 C 1770 117.388, 1766.013 113, 1763.927 113 C 1762.222 113, 1762 113.748, 1762 119.500 M 1321.115 135 C 1321.168 142.287, 1321.493 145.584, 1322 144 C 1323.148 140.416, 1323.148 126.776, 1322 125 C 1321.346 123.988, 1321.058 127.239, 1321.115 135 M 1176.904 130.611 C 1175.684 133.671, 1174.360 143.852, 1175.293 142.995 C 1176.142 142.216, 1179.103 128.770, 1178.548 128.214 C 1178.277 127.944, 1177.538 129.023, 1176.904 130.611 M 174.370 139 C 174.370 144.775, 174.535 147.137, 174.737 144.250 C 174.939 141.363, 174.939 136.637, 174.737 133.750 C 174.535 130.863, 174.370 133.225, 174.370 139 M 1488.577 147.500 C 1488.947 154.100, 1489.530 159.803, 1489.874 160.173 C 1490.218 160.543, 1492.646 160.971, 1495.270 161.125 C 1499.083 161.349, 1500.480 160.964, 1502.237 159.207 L 1504.435 157.010 1499.777 152.255 C 1497.215 149.640, 1493.496 144.800, 1491.513 141.500 L 1487.906 135.500 1488.577 147.500 M 1487.415 191 C 1487.415 201.175, 1487.564 205.338, 1487.745 200.250 C 1487.927 195.162, 1487.927 186.837, 1487.745 181.750 C 1487.564 176.662, 1487.415 180.825, 1487.415 191 M 1751.409 191.500 C 1751.408 200.850, 1751.558 204.810, 1751.743 200.299 C 1751.928 195.789, 1751.929 188.139, 1751.745 183.299 C 1751.562 178.460, 1751.410 182.150, 1751.409 191.500 M 175.878 207.281 C 176.309 207.711, 182.476 207.934, 189.581 207.777 L 202.500 207.492 188.797 206.996 C 181.260 206.723, 175.446 206.852, 175.878 207.281 M 964.299 207.745 C 969.139 207.929, 976.789 207.928, 981.299 207.743 C 985.810 207.558, 981.850 207.408, 972.500 207.409 C 963.150 207.410, 959.460 207.562, 964.299 207.745 M 922.250 218.742 C 925.962 218.934, 932.038 218.934, 935.750 218.742 C 939.462 218.549, 936.425 218.392, 929 218.392 C 921.575 218.392, 918.538 218.549, 922.250 218.742 M 578.811 220.748 C 586.681 220.917, 599.281 220.917, 606.811 220.747 C 614.340 220.578, 607.900 220.439, 592.500 220.440 C 577.100 220.440, 570.940 220.579, 578.811 220.748 M 776.684 220.748 C 787.235 220.910, 804.785 220.911, 815.684 220.749 C 826.583 220.587, 817.950 220.455, 796.500 220.455 C 775.050 220.454, 766.133 220.587, 776.684 220.748" stroke="none" fill="#c6cb48" fill-rule="evenodd"/></svg>